<?xml version="1.0" encoding="UTF-8"?><svg xmlns="http://www.w3.org/2000/svg" viewBox="0 0 504.7 95.74"><defs><style>.cls-1{fill:#ffca0f;}.cls-2{fill:#ffc80a;}.cls-3{fill:none;}.cls-4{fill:#88171a;}.cls-5{fill:#231f20;}</style></defs><g id="Layer_4"><g><path class="cls-3" d="M290.7,4.21c-1.01,3.52-1.7,5.89-4.5,8.36,2.51,3.59,3.23,9.22,.41,13.32,6.63-.88,11.96-8,12.09-13.84,.1-4.5-2.81-7.34-8.01-7.84Z"/><path class="cls-3" d="M399.41,76.98c.96,1.87,2.19,4.01,3.27,5.39l1.15,1.46-1.73-.69c-8.22-3.28-18.91-10.19-22.97-17.59l-.12-.22,.1-.23c1.13-2.52,4.08-3.78,6.23-4.71l.09-.04c-2.33-4-2.5-9.34-2.65-14.07-.02-.58-.04-1.15-.06-1.71,.19-2.54,.09-5.76-.01-9.17-.35-11.34-.81-26.58,9.16-31.04-4.27-.11-8.53,.52-12.66,1.13-4.76,.71-9.66,1.44-14.68,1.06,2.68,1.66,4.59,4,5.7,6.99,2.65,7.18,0,16.72-3.41,23.37,7.85,9.4,5.49,25.95-1.72,36.27,1.05-.13,2.06-.2,3.02-.2,7.63,0,12.77,3.93,18.17,8.06,9.43,7.2,19.18,14.65,43.98,3.93l-.1-.32c-9.75,1.49-19.59-.96-30.76-7.69Z"/><path class="cls-3" d="M318.86,27.89c-5.54,2.25-9.61,3.91-14.94,4.14,2.11,7.08,1.63,13.97,1.04,21.21,5.53-1.48,12.89-2.82,18.19-3.3l.51-.05,.04,.51c.31,4.35-.01,8.9-.99,13.94l-.12,.6-.57-.24c-1.33-.55-2.59-1.1-3.81-1.63-5.01-2.17-9.36-4.05-13.77-4.54-1.76,2.32-2.89,6.31-3.16,9.35,.45,.03,.89,.07,1.33,.1,4.97,.36,9.67,.71,13.5,3.92,4.64-2.89,11.01-4.46,18.96-4.68-.96-6.15-.82-16.86-.48-23.11-.64,.05-1.27,.1-1.89,.15-6.08,.46-11.32,.86-16.83,2.81l-.6,.21-.07-.63c-.47-4.4-.5-8.93-.09-12.75l.08-.76,.67,.38c4.5,2.6,10.95,4.73,15.56,2.9,2.35-.93,4.02-2.81,4.99-5.58-7.01-.55-12.42-1.74-16.1-3.55l-1.47,.59Z"/><path class="cls-3" d="M165.18,27.12c-5.05,3.5-11.43,6.18-17.64,7.41,2.01,7.96,2.08,20.52,.14,29.73,3.38,1.1,6.5,3.06,9.28,5.85,5.9-1.39,11.89-4.06,16.47-7.34l.76-.54,.03,.93c.06,1.67,.09,3.26,.12,4.8,.09,4.25,.18,8.27,.76,12.52l.06,.42-7.32,2.34-.21-.15c-3.58-2.64-10.43-7.26-16.39-8.76-2.56,2.56-4.51,6.46-5.42,10.81,7.05,.19,12.16,2.82,17.97,6.97,6.3-5.67,14.53-9.38,21.71-9.81-.47-2.68-.7-7.58-.7-14.58v-.02c.18-3.7,.1-7.66,0-11.87-.2-9.42-.4-19.14,2.34-26.96-7.51,2.25-13.67,.77-21.98-1.75Zm9.85,10.14c-.79,4.41-.79,9.96-.78,15.33,0,1.25,0,2.51,0,3.74v.28l-.24,.14c-3.45,2.06-8.69,3.55-14.02,3.99l-.61,.05,.07-.61c.62-5.19,.55-16.26,.18-20.74l-.03-.32,.28-.16c1.52-.85,3.92-2.69,5.15-3.92l.22-.23,.3,.11c2.98,1.05,6.35,1.71,9.02,1.75h.59l-.1,.59Z"/><path class="cls-3" d="M232.27,30.52c-7.8,.78-14.28-.65-22.06-3.2-3.19,3.13-9.19,8.27-15.57,9.7,2.94,13.82,2.9,23.96-.1,30.15,.38-.02,.77-.02,1.17-.02,6.11,0,13.68,1.81,18.92,4.59,5.45-5.27,12.04-8.84,18.21-9.87-1.81-10.47-2.03-22.62-.56-31.35Zm-11.19,33.43l-.65-.21c-3.1-1.01-7.47-1.84-13.36-2.56l-.47-.06,.03-.47c.56-9.29,.71-17.2-.35-25.65l-.12-.93,.84,.42c4.06,2.05,11.59,2.86,13.8,3.07l.46,.04-.19,26.35Z"/><path class="cls-3" d="M138.62,59.65c-2.83-6.45-1.36-21.68,.6-26.09-5.33-.17-8.97-1.9-13.07-6.19-4.99,2.65-12.25,3.99-19.64,3.65,.45,3.04,1.74,5.16,3.83,6.32,5.08,2.82,13.29-.72,15.69-1.87l.72-.34v9.94l-.3,.13c-5.85,2.61-13.71,3.71-21.7,3.05,1.71,6.2,1.2,13.98-.13,19.35,6.4,.2,11.35,1.48,15.9,4.11l6.39-7.69,.32,.74c.94,2.15,2.83,5.16,5.17,6.88,1.83-3.06,5.16-7.01,9.01-8.86v-.25c-1.16-.3-2.1-1.26-2.81-2.88Zm-11.78,3.55l-.62-.15c-2.56-.63-4.49-.75-6.54-.87-.84-.05-1.71-.1-2.65-.19l-.46-.04,.2-9.9,.44-.05c2.27-.25,5.28-1.08,8.96-2.47l.68-.25v13.92Z"/><path class="cls-3" d="M254.53,37.14l-.77,.51v-8.18l-1.34-2.24c-3.58,.88-8.67,1.97-12.53,2.53v.22l3.38,1.46-.1,.41c-.31,1.26-.15,5.48,.02,10.38,.49,13.42,.64,24.71-2.41,26.6v.53h15.39v-.53c-3.12-1.85-2.73-11.06-2.41-18.51,.14-3.28,.26-6.11,.02-7.35l-.08-.39,11.64-5.21,1.54,1.66v.2c-.03,2.82,0,5.73,.04,8.54,.12,9.7,.25,19.72-2.2,29.27,3.11-3.15,7.74-7.13,12.96-9.19-1.35-11.58-1.19-24.11,.43-33.68-3.97-1.89-7.22-4.19-10.74-7.6-4.07,4.24-7.59,7.14-12.83,10.58Z"/><path class="cls-3" d="M458.79,40.64c.18-5.18,.33-9.66,.04-11.13l-1.37-2.28c-3.58,.88-8.67,1.97-12.53,2.53v.22l3.26,1.41,.03,.29c.27,2.23,.14,6.38-.01,11.17-.33,10.53-.78,24.9,2.72,28.96,1.4-.3,2.73-.65,4.02-1,1.97-.53,4.01-1.07,6.26-1.39v-.59c-3.06-1.93-2.92-13.43-2.41-28.18Z"/><path class="cls-3" d="M453.66,3.5c-3.31,1.84-6.02,5.46-7.79,8.35,.78,.64,1.66,1.32,2.58,2.03,1.71,1.31,3.47,2.66,4.84,4.01,2.08-3.86,4.71-5.92,7.98-8.31-3.55-2.34-6.05-4.33-7.61-6.08Z"/><path class="cls-3" d="M436.66,59.65c-2.84-6.45-1.36-21.68,.6-26.09-5.33-.17-8.97-1.9-13.07-6.19-4.99,2.65-12.25,3.99-19.64,3.65,.45,3.04,1.74,5.16,3.83,6.32,5.08,2.82,13.29-.72,15.69-1.87l.72-.34v9.94l-.3,.13c-5.84,2.61-13.72,3.71-21.7,3.05,1.71,6.2,1.2,13.98-.13,19.35,6.4,.2,11.35,1.48,15.9,4.11l6.39-7.69,.32,.74c.94,2.15,2.83,5.16,5.17,6.88,1.83-3.06,5.16-7.01,9.01-8.86v-.25c-1.16-.3-2.1-1.26-2.81-2.88Zm-11.78,3.54l-.62-.15c-2.56-.63-4.49-.75-6.54-.87-.84-.05-1.71-.1-2.65-.19l-.46-.04,.2-9.9,.44-.05c2.27-.25,5.29-1.08,8.97-2.47l.68-.25v13.92Z"/><path class="cls-3" d="M483.51,41.53l-.92,1.49v-13.55l-1.34-2.24c-3.58,.88-8.67,1.97-12.53,2.53v.22l3.39,1.46-.11,.41c-.3,1.18-.15,5.41,.02,10.31,.5,14.07,.64,25.02-2.41,26.69v.5h18.06v-.6c-3.77-.74-5.01-2.43-5.08-6.73v-12.46l7.42-10.4c.63-.45,2.01,.07,6.18,2.35,.38,.21,.76,.41,1.01,.55,2.11-2.6,3.5-6.28,4.12-10.94-4.84-1.2-8.41-2.46-10.86-3.83-1.94,5.15-4.22,9.81-6.96,14.23Z"/><path class="cls-1" d="M139.54,59.24c-2.86-6.51-1.08-23.15,.93-25.88l.59-.8h-.99c-5.59,0-9.24-1.68-13.44-6.17l-.27-.28-.34,.19c-4.97,2.75-12.46,4.12-20.04,3.68l-.59-.04,.06,.59c.41,3.69,1.89,6.27,4.41,7.67,4.98,2.77,12.32,.11,15.89-1.51v7.71c-5.84,2.53-13.7,3.54-21.63,2.77l-.75-.07,.22,.72c1.97,6.35,1.37,14.68-.09,20.12l-.17,.62h.64c6.7,.15,11.77,1.44,16.41,4.22l.37,.22,5.91-7.11c1.17,2.41,3.17,5.29,5.64,6.89l.45,.29,.26-.46c1.87-3.3,5.41-7.38,9.12-9.05l.29-.13v-1.75l-.45-.05c-.98-.1-1.8-.9-2.45-2.37Zm1.9,3.53c-3.86,1.86-7.18,5.8-9.01,8.86-2.34-1.72-4.23-4.73-5.17-6.88l-.32-.74-6.39,7.69c-4.55-2.63-9.5-3.91-15.9-4.11,1.33-5.37,1.84-13.15,.13-19.35,7.98,.66,15.85-.44,21.7-3.05l.3-.13v-9.94l-.72,.34c-2.4,1.15-10.61,4.69-15.69,1.87-2.09-1.16-3.38-3.28-3.83-6.32,7.39,.34,14.65-1,19.64-3.65,4.1,4.29,7.74,6.02,13.07,6.19-1.96,4.41-3.44,19.64-.6,26.09,.71,1.62,1.66,2.58,2.81,2.88v.25Z"/><path class="cls-1" d="M117.21,51.99l-.44,.05-.2,9.9,.46,.04c.94,.09,1.81,.14,2.65,.19,2.04,.12,3.98,.23,6.54,.87l.62,.15v-13.92l-.68,.25c-3.68,1.38-6.7,2.21-8.96,2.47Z"/><path class="cls-1" d="M165.24,26.09l-.23-.07-.2,.14c-5.1,3.59-11.66,6.32-17.97,7.49l-.53,.1,.14,.52c2.14,7.91,2.22,20.91,.17,30.22l-.1,.45,.44,.13c3.46,1.04,6.66,3.03,9.5,5.93l.2,.2,.27-.06c5.79-1.33,11.69-3.87,16.34-7.03,.04,1.33,.07,2.62,.09,3.87,.09,4.14,.17,8.06,.72,12.21l-6.04,1.93c-3.75-2.75-10.74-7.4-16.81-8.84l-.27-.06-.2,.19c-2.91,2.81-5.11,7.22-6.02,12.12l-.11,.59h.6c7.26,.06,12.22,2.63,18.33,7.04l.33,.24,.3-.28c6.34-5.82,14.75-9.59,21.95-9.85l.6-.02-.13-.58c-.52-2.45-.79-7.47-.79-14.94,.18-3.73,.1-7.71,0-11.92-.21-9.71-.42-19.75,2.63-27.54l.39-1-1.02,.34c-7.76,2.62-13.98,1.1-22.59-1.52Zm19.58,29.74c.09,4.2,.17,8.17,0,11.87v.02c0,7,.24,11.9,.7,14.58-7.17,.43-15.4,4.14-21.71,9.81-5.81-4.16-10.92-6.78-17.97-6.97,.91-4.35,2.87-8.25,5.42-10.81,5.95,1.5,12.8,6.11,16.39,8.76l.21,.15,7.32-2.34-.06-.42c-.59-4.25-.67-8.26-.76-12.52-.03-1.54-.07-3.13-.12-4.8l-.03-.93-.76,.54c-4.58,3.28-10.57,5.95-16.47,7.34-2.79-2.79-5.91-4.75-9.28-5.85,1.93-9.22,1.87-21.77-.14-29.73,6.21-1.23,12.59-3.91,17.64-7.41,8.31,2.52,14.47,4.01,21.98,1.75-2.74,7.82-2.54,17.54-2.34,26.96Z"/><path class="cls-1" d="M165.53,34.91l-.3-.11-.22,.23c-1.22,1.24-3.63,3.07-5.15,3.92l-.28,.16,.03,.32c.37,4.48,.44,15.55-.18,20.74l-.07,.61,.61-.05c5.33-.44,10.57-1.93,14.02-3.99l.24-.14v-.28c.01-1.23,.01-2.48,.01-3.74,0-5.37,0-10.92,.78-15.33l.1-.58h-.59c-2.66-.05-6.03-.71-9.02-1.76Z"/><path class="cls-1" d="M233.37,30.04l.12-.66-.67,.08c-8.05,.92-14.37-.47-22.59-3.18l-.29-.1-.22,.22c-3.12,3.11-9.32,8.5-15.77,9.75l-.5,.1,.11,.5c3.08,14.24,2.97,24.87-.3,30.74l-.45,.81,.93-.07c6.33-.48,15.05,1.45,20.74,4.57l.33,.18,.27-.26c5.5-5.41,12.21-9.03,18.43-9.93l.51-.07-.09-.51c-1.92-10.74-2.13-23.36-.54-32.16Zm-18.75,41.7c-5.24-2.78-12.81-4.59-18.92-4.59-.4,0-.78,0-1.17,.02,3-6.19,3.04-16.33,.1-30.15,6.38-1.43,12.39-6.57,15.57-9.7,7.79,2.55,14.26,3.98,22.06,3.2-1.47,8.73-1.25,20.88,.56,31.35-6.17,1.03-12.76,4.6-18.21,9.87Z"/><path class="cls-1" d="M207.01,34.49l-.84-.42,.12,.93c1.07,8.45,.91,16.36,.35,25.65l-.03,.47,.47,.06c5.89,.72,10.26,1.56,13.36,2.56l.65,.21,.19-26.35-.46-.04c-2.21-.2-9.75-1.02-13.8-3.07Z"/><path class="cls-1" d="M267.7,25.5l-.36-.36-.35,.37c-3.96,4.17-7.34,7.02-12.23,10.28v-6.6l-1.87-3.11-.36,.09c-3.7,.92-9.22,2.11-13.22,2.66l-.43,.06v1.74l3.23,1.4c-.24,1.69-.1,5.5,.07,10.23,.33,9.22,.89,24.65-2.09,25.79l-.32,.12v2.18h17.39v-2.17l-.31-.13c-2.8-1.15-2.38-11.11-2.1-17.7,.13-3.17,.24-5.73,.06-7.19l10.28-4.6,.78,.84c-.03,2.77,0,5.61,.04,8.36,.12,9.75,.25,19.83-2.25,29.35l-.07,.28,1.1,1.1,.35-.37c3.1-3.21,7.93-7.46,13.36-9.5l.37-.14-.05-.39c-1.41-11.75-1.25-24.52,.44-34.15l.07-.38-.35-.16c-4.21-1.96-7.44-4.26-11.17-7.92Zm9.97,42.34c-5.22,2.06-9.85,6.04-12.96,9.19,2.44-9.55,2.32-19.57,2.2-29.27-.03-2.81-.07-5.71-.04-8.54v-.2l-1.54-1.66-11.64,5.21,.08,.39c.24,1.25,.12,4.08-.02,7.35-.31,7.45-.7,16.66,2.41,18.51v.53h-15.39v-.53c3.05-1.89,2.9-13.18,2.41-26.6-.18-4.89-.33-9.12-.02-10.38l.1-.41-3.38-1.46v-.22c3.86-.56,8.95-1.65,12.53-2.53l1.34,2.24v8.18l.77-.51c5.24-3.43,8.76-6.33,12.83-10.58,3.52,3.4,6.78,5.7,10.74,7.6-1.62,9.57-1.78,22.09-.43,33.68Z"/><path class="cls-1" d="M290.36,3.18l-.4-.03-.22,.78c-1.04,3.61-1.67,5.79-4.54,8.19l-.37,.31,.29,.38c2.63,3.43,3.39,9.51,.02,13.35l-.75,.86,1.14-.03c7.79-.2,14.02-8.18,14.17-14.9,.12-5.22-3.28-8.46-9.34-8.9Zm-3.75,22.71c2.82-4.1,2.1-9.73-.41-13.32,2.8-2.48,3.49-4.85,4.5-8.36,5.2,.5,8.11,3.34,8.01,7.84-.13,5.84-5.46,12.96-12.09,13.84Z"/><path class="cls-1" d="M320.57,26.3l-.2-.1-1.89,.77c-5.67,2.3-9.77,3.97-15.25,4.09l-.67,.02,.2,.64c2.35,7.35,1.76,14.55,1.14,22.16l-.06,.72,.69-.19c5.37-1.5,12.76-2.88,18.19-3.41,.23,3.93-.06,8.05-.89,12.56-1.12-.47-2.19-.94-3.23-1.39-5.19-2.25-9.68-4.19-14.34-4.65l-.27-.03-.17,.21c-2.18,2.68-3.39,7.38-3.58,10.62l-.03,.49,.49,.04c.62,.05,1.23,.09,1.83,.14,4.92,.36,9.57,.7,13.2,3.92l.28,.25,.32-.21c4.61-2.98,11.12-4.57,19.33-4.73h.58l-.1-.59c-1.07-6.14-.9-17.73-.53-24.02l.03-.57-.57,.05c-.83,.07-1.65,.13-2.46,.19-5.68,.43-11.06,.84-16.49,2.66-.37-3.85-.41-7.76-.1-11.16,2.9,1.57,10.05,4.85,15.75,2.59,2.81-1.11,4.75-3.41,5.77-6.82l.18-.6-.62-.04c-7.32-.53-12.89-1.74-16.56-3.6Zm10.86,10.13c-4.61,1.83-11.06-.3-15.56-2.9l-.67-.38-.08,.76c-.41,3.82-.38,8.35,.09,12.75l.07,.63,.6-.21c5.51-1.95,10.75-2.35,16.83-2.81,.62-.05,1.25-.1,1.89-.15-.34,6.25-.47,16.96,.48,23.11-7.95,.22-14.33,1.79-18.96,4.68-3.83-3.22-8.53-3.56-13.5-3.92-.44-.03-.88-.06-1.33-.1,.27-3.04,1.4-7.03,3.16-9.35,4.41,.49,8.75,2.37,13.77,4.54,1.22,.53,2.49,1.08,3.81,1.63l.57,.24,.12-.6c.97-5.03,1.3-9.59,.99-13.94l-.04-.51-.51,.05c-5.3,.48-12.67,1.82-18.19,3.3,.59-7.24,1.07-14.12-1.04-21.21,5.34-.24,9.4-1.89,14.94-4.14l1.47-.59c3.67,1.81,9.08,3,16.1,3.55-.97,2.77-2.64,4.65-4.99,5.58Z"/><path class="cls-1" d="M430.45,83.62c-10.22,1.68-20.08-.91-31.99-8.39l-1.45-.91,.73,1.55c.78,1.65,1.97,3.9,3.13,5.69-7.71-3.39-16.97-9.61-20.74-16.25,1.04-2.02,3.57-3.1,5.61-3.98l1.16-.5-.32-.49c-2.47-3.82-2.65-9.26-2.8-14.06-.02-.58-.04-1.16-.06-1.66,.19-2.54,.09-5.78,0-9.22-.38-12.52-.86-28.11,10.85-30.86l2.9-.68-2.96-.3c-5.25-.54-10.43,.23-15.43,.98-5.59,.83-11.36,1.69-17.22,.72l-4.51-.75,4.25,1.7c3.79,1.52,6.39,4.11,7.71,7.7,2.58,6.98-.13,16.39-3.52,22.86l-.16,.3,.22,.26c8.06,9.29,5.34,26.24-2.25,36.25l-.77,1.01,1.25-.22c9.63-1.67,15.45,2.78,21.61,7.49,5.93,4.53,12.37,9.45,22.98,9.45,5.95,0,13.2-1.55,22.42-5.57l.41-.18-.62-2-.43,.07Zm-44.15-2.56c-5.4-4.13-10.55-8.06-18.17-8.06-.97,0-1.97,.06-3.02,.2,7.21-10.32,9.57-26.87,1.72-36.27,3.42-6.65,6.06-16.19,3.41-23.37-1.1-2.98-3.01-5.33-5.7-6.99,5.02,.38,9.92-.35,14.68-1.06,4.13-.61,8.39-1.24,12.66-1.13-9.97,4.46-9.5,19.7-9.16,31.04,.1,3.41,.2,6.63,.01,9.17,.02,.56,.04,1.13,.06,1.71,.15,4.73,.32,10.07,2.65,14.07l-.09,.04c-2.16,.93-5.11,2.19-6.23,4.71l-.1,.23,.12,.22c4.05,7.41,14.75,14.31,22.97,17.59l1.73,.69-1.15-1.46c-1.08-1.38-2.31-3.52-3.27-5.39,11.18,6.73,21.01,9.18,30.76,7.69l.1,.32c-24.8,10.71-34.55,3.27-43.98-3.93Z"/><path class="cls-1" d="M415.24,51.99l-.44,.05-.2,9.9,.46,.04c.94,.09,1.81,.14,2.65,.19,2.04,.12,3.98,.23,6.54,.87l.62,.15v-13.92l-.68,.25c-3.68,1.38-6.7,2.21-8.97,2.47Z"/><path class="cls-1" d="M437.57,59.24c-2.86-6.51-1.08-23.15,.93-25.88l.59-.8h-.99c-5.59,0-9.24-1.68-13.44-6.17l-.27-.28-.34,.19c-4.96,2.75-12.45,4.12-20.04,3.68l-.59-.04,.07,.59c.41,3.69,1.89,6.27,4.41,7.67,4.99,2.77,12.32,.11,15.89-1.51v7.71c-5.84,2.53-13.7,3.53-21.63,2.77l-.75-.07,.22,.72c1.97,6.36,1.37,14.69-.09,20.12l-.17,.62h.64c6.71,.15,11.77,1.44,16.41,4.22l.37,.22,5.91-7.11c1.17,2.4,3.17,5.29,5.64,6.89l.45,.29,.26-.46c1.87-3.3,5.42-7.38,9.12-9.05l.29-.13v-1.75l-.45-.05c-.98-.1-1.8-.9-2.45-2.37Zm1.9,3.53c-3.85,1.86-7.18,5.8-9.01,8.86-2.34-1.72-4.23-4.73-5.17-6.88l-.32-.74-6.39,7.69c-4.55-2.63-9.5-3.91-15.9-4.11,1.33-5.37,1.84-13.15,.13-19.35,7.98,.66,15.85-.44,21.7-3.05l.3-.13v-9.94l-.72,.34c-2.4,1.15-10.61,4.69-15.69,1.87-2.09-1.16-3.38-3.28-3.83-6.32,7.39,.35,14.65-1,19.64-3.65,4.1,4.29,7.74,6.02,13.07,6.19-1.96,4.41-3.44,19.64-.6,26.09,.71,1.62,1.66,2.58,2.81,2.88v.25Z"/><path class="cls-1" d="M454.16,2.55l-.26-.3-.35,.18c-3.82,1.95-6.87,6.12-8.75,9.27l-.22,.36,.32,.27c.87,.74,1.88,1.51,2.95,2.33,1.89,1.45,3.84,2.95,5.21,4.4l.49,.52,.32-.64c2.04-4.09,4.46-5.99,8.58-8.99l.59-.43-.61-.4c-4.01-2.6-6.71-4.75-8.26-6.58Zm-.87,15.33c-1.37-1.35-3.13-2.7-4.84-4.01-.92-.71-1.8-1.39-2.58-2.03,1.77-2.89,4.48-6.51,7.79-8.35,1.56,1.74,4.06,3.74,7.61,6.08-3.26,2.39-5.9,4.45-7.98,8.31Z"/><path class="cls-1" d="M459.79,40.68c.19-5.56,.34-9.95,0-11.46l-1.85-3.14-.36,.09c-3.7,.92-9.22,2.11-13.22,2.66l-.43,.06v1.74l3.33,1.44c.22,2.22,.09,6.18-.05,10.74-.36,11.5-.81,25.81,3.19,29.89l.19,.19,.27-.05c1.53-.31,2.97-.7,4.36-1.07,2.16-.58,4.21-1.12,6.56-1.42l.44-.05v-2.12l-.32-.12c-3-1.18-2.44-17.58-2.1-27.38Zm1.42,28.74c-2.25,.31-4.28,.86-6.26,1.39-1.29,.35-2.62,.7-4.02,1-3.5-4.06-3.05-18.42-2.72-28.96,.15-4.8,.28-8.94,.01-11.17l-.03-.29-3.26-1.41v-.22c3.86-.56,8.95-1.65,12.53-2.53l1.37,2.28c.3,1.47,.14,5.95-.04,11.13-.51,14.75-.65,26.25,2.41,28.18v.59Z"/><path class="cls-1" d="M501.99,30.27c-5.32-1.3-9.09-2.65-11.53-4.13l-.52-.32-.21,.57c-1.74,4.72-3.76,9.01-6.16,13.08v-10.28l-1.87-3.11-.36,.09c-3.69,.92-9.21,2.1-13.22,2.66l-.43,.06v1.74l3.23,1.4c-.23,1.64-.09,5.45,.07,10.16,.33,9.35,.89,24.99-2.05,25.84l-.36,.1v2.21h20.06v-2.44l-.42-.07c-3.6-.61-4.6-1.86-4.66-5.83v-12.13l7.02-9.88c.81,.04,3.91,1.73,5.11,2.39,.81,.44,1.24,.68,1.45,.76l.33,.12,.23-.27c2.45-2.85,4.02-6.95,4.66-12.2l.05-.44-.43-.11Zm-4.8,11.8c-.26-.13-.63-.34-1.01-.55-4.17-2.28-5.55-2.81-6.18-2.35l-7.42,10.4v12.46c.06,4.31,1.31,6,5.08,6.73v.6h-18.06v-.5c3.05-1.67,2.92-12.62,2.41-26.69-.17-4.9-.33-9.13-.02-10.31l.11-.41-3.39-1.46v-.22c3.87-.56,8.96-1.65,12.53-2.53l1.34,2.24v13.55l.92-1.49c2.74-4.42,5.02-9.08,6.96-14.23,2.45,1.38,6.01,2.63,10.86,3.83-.63,4.66-2.01,8.34-4.12,10.94Z"/></g><g><g><path class="cls-2" d="M42.61,75.97c-.21,0-.41-.1-.58-.2h-.02c-.11,.07-.24,.11-.38,.11-.23,0-.44-.1-.59-.18-12.31-5.3-27.22-5.51-39.2-5.68h0c-.28,0-.52-.19-.59-.47-.07-.28,.04-.56,.28-.7l2.97-1.82c9.24-5.54,9.91-18.75,4.74-27.62-.49-.58-.08-1.08,.1-1.29,2.55-4,2.62-9.38,2.7-14.57,.02-1.14,.03-2.27,.08-3.37C12.68,12.18,6.96,8.14,1.44,4.24c-.66-.53-1.08-.87-1.06-1.34,.01-.36,.3-.6,.51-.74l.09-.06h.11c3.29-.06,6.61-.06,9.81-.06,10.12,0,19.68,0,29.54-1.61l.12-.02,.11,.06c7.6,3.85,11.75,5.27,13.98,6.04,2.85,.98,2.97,1.11,3.07,3.49,.1,2.23,.3,6.84,3.63,17.14h.01l.09,.3,.11,.35h-.01c.18,.62,.38,1.25,.59,1.89,.47,1.5,.97,3.05,1.31,4.64l.03,.11-.04,.11c-3.27,7.93-4.35,18.12-2.98,27.97l.05,.38-.38,.05c-7.39,.92-11.9,6.48-16.67,12.36l-.39,.48c-.1,.14-.27,.23-.47,.23h0Z"/><path class="cls-5" d="M40.5,.78c26.33,13.34,11.07-2.47,20.59,26.73l-.24,.07,.25-.04c.61,2.13,1.47,4.44,1.99,6.82-3.85,9.32-4.15,19.99-3,28.17-7.74,.97-12.33,6.85-17.3,12.98-.05,.07-.11,.09-.18,.09-.23,0-.54-.27-.71-.28-.07,.14-.16,.19-.28,.19-.15,0-.32-.09-.45-.15-12.04-5.18-26.53-5.52-39.34-5.7h0c-.24,0-.33-.34-.12-.46l2.98-1.82c9.38-5.62,10.15-19.06,4.87-28.13-.28-.33-.19-.55,.07-.86,3.21-5.04,2.62-12.14,2.86-18.16C13.06,12.11,7.38,7.97,1.66,3.93c-.85-.69-1.24-1.01-.56-1.47,13.28-.24,26.26,.46,39.41-1.68m.12-.78l-.24,.04C30.55,1.64,21.01,1.64,10.9,1.65c-3.21,0-6.53,0-9.82,.06h-.23l-.19,.13C.51,1.95,.02,2.28,0,2.88c-.03,.66,.51,1.09,1.18,1.63,5.48,3.87,11.1,7.85,10.54,15.65-.05,1.12-.06,2.23-.08,3.4-.07,5.13-.15,10.44-2.64,14.38-.48,.6-.5,1.18-.08,1.73,5.05,8.71,4.39,21.65-4.64,27.06l-2.98,1.83c-.37,.21-.56,.66-.44,1.11,.12,.45,.5,.74,.95,.74,11.94,.17,26.81,.38,39.05,5.64,.17,.08,.44,.21,.75,.21,.14,0,.27-.02,.39-.07,.17,.08,.37,.16,.6,.16,.32,0,.6-.15,.79-.41l.36-.44c4.72-5.82,9.18-11.32,16.42-12.22l.76-.09-.11-.75c-1.37-9.79-.29-19.91,2.95-27.78l.09-.22-.05-.23c-.35-1.61-.85-3.17-1.32-4.67-.16-.52-.33-1.03-.48-1.53h.02l-.23-.71-.18-.62h-.02c-3.22-10.03-3.42-14.54-3.51-16.72-.12-2.64-.44-2.84-3.33-3.83-2.22-.76-6.35-2.18-13.93-6.02l-.22-.11h0Z"/></g><g><path class="cls-2" d="M82.27,70.99c-2.51,0-5.46,0-8.04-.01-1.99,0-3.76,0-4.93,0-.81,0-1.33,0-1.41,0h-.02c-.19,0-.32-.06-.42-.16-.29-.3-.27-.96-.22-1.93,.01-.23,.03-.55,.02-.63-.02-.2,0-.48,.31-.66v-.55l.15-.11c3.03-2.27,2.44-13.63,1.97-22.76-.25-4.91-.47-9.18-.17-11.75l-2.8-1.21c-.44-.06-.41-.82-.38-1.77,0-.21,.02-.39,0-.46-.01-.26-.03-.81,.26-1.02l.07-.13c.01-.1,.05-.19,.11-.27,.21-.27,.63-.3,.99-.33,.09,0,.17,0,.22-.02,2.43-.26,5.17-.88,7.82-1.48,2.33-.53,4.52-1.02,6.4-1.26l.24-.03,2.25,3.75c.1,.11,.12,.14,.09,5.05,0,.46,0,.92,0,1.34,.95-1.87,1.76-3.83,2.55-5.73,.48-1.15,.95-2.3,1.45-3.42l.02-.05,.03-.04s.04-.15,.08-.28c.15-.51,.34-1.15,.86-1.15,.11,0,.22,.03,.33,.1,2.86,1.9,6.66,3.3,13.1,4.83l.22,.05,.06,.22c.64,2.47-1.82,10.37-4.17,13.41-.67,.87-1.29,1.29-1.88,1.29h0c-.1,0-.2-.01-.3-.04l-.04,.05-.19-.02c-1.05-.09-2.2-.76-3.42-1.48-.83-.49-1.68-.99-2.52-1.31l-6.17,8.68v11.77c-.13,3.63,1.09,4,3.53,4.72,.4,.12,.84,.25,1.29,.4l.26,.09v3.63c.01,.13-.04,.29-.15,.4-.2,.22-.53,.24-.8,.24-.15,0-.32-.01-.47-.02-.11,0-.21-.01-.28-.01v-.02c-.32,.08-1.36,.08-5.91,.08Z"/><path class="cls-5" d="M89.79,24.29s.08,.01,.13,.04c3.15,2.09,7.35,3.49,13.22,4.88,.76,2.93-3.19,14.24-5.69,14.24-.14,0-.28-.04-.41-.11l-.09,.11c-1.73-.14-3.95-2.14-6.11-2.86l-6.4,9.01v11.89c-.17,4.54,1.84,4.39,5.08,5.48v3.36c.02,.22-.25,.27-.57,.27-.27,0-.57-.04-.75-.04-.07,0-.12,0-.15,.02-.03,.04-2.54,.05-5.78,.05-4.45,0-10.29-.02-12.96-.02-.89,0-1.42,0-1.44,0h-.02c-.48,0-.11-2.24-.23-2.46-.01-.19,.19-.25,.33-.28v-.63c4.86-3.64,.97-27.79,1.99-35.05l-3.06-1.32c-.3-.05-.09-1.78-.15-1.97,0-.18,0-.65,.16-.65l.18-.32c-.06-.38,.91-.28,1.08-.37,4.38-.44,10.11-2.21,14.14-2.71l2.13,3.55c.12,.14-.02,7.51,.04,7.67,1.88-3.36,3.17-7.03,4.71-10.48,.14-.17,.29-1.29,.65-1.29m0-.75c-.81,0-1.06,.86-1.22,1.42-.02,.08-.04,.15-.06,.21h-.01l-.04,.11c-.5,1.13-.99,2.3-1.46,3.43-.58,1.4-1.17,2.82-1.82,4.22,.04-4.66,.03-4.73-.21-5.01-.21-.37-.73-1.24-2.06-3.45l-.25-.42-.49,.06c-1.9,.24-4.1,.74-6.44,1.26-2.64,.6-5.37,1.21-7.68,1.45h-.14l-.04,.03s-.08,0-.12,0c-.4,.03-.94,.07-1.26,.47-.09,.11-.15,.24-.18,.38v.02c-.15,.13-.28,.34-.32,.67-.02,.15-.03,.32-.03,.52v.14c.01,.09,0,.22,0,.37-.04,1-.08,1.95,.66,2.16l2.48,1.07c-.26,2.62-.05,6.78,.2,11.54,.44,8.56,1.04,20.29-1.82,22.44l-.3,.23v.55c-.34,.29-.34,.68-.33,.78v.17l.02,.03c0,.12-.01,.33-.02,.49-.06,1.1-.07,1.8,.32,2.21,.17,.18,.41,.28,.65,.28h.09c.13,0,.62,0,1.38,0,1.16,0,2.93,0,4.92,0,2.57,0,5.52,.01,8.04,.01,4.31,0,5.57,0,6.04-.11v.02c-.07,.03-.13,.03-.13,.03h0c.09,0,.17,0,.27,.01,.16,.01,.33,.02,.49,.02,.34,0,.77-.04,1.07-.36,.18-.19,.27-.44,.25-.71h0c0-.28,0-1.05,0-3.3v-.54l-.51-.17c-.46-.15-.9-.28-1.31-.41-2.46-.73-3.38-1.01-3.26-4.34,0-.1,0-10.01,0-11.68l5.93-8.34c.72,.31,1.47,.75,2.19,1.17,1.26,.74,2.44,1.44,3.58,1.53h.06c.07,0,.14,0,.19-.02,.1,.02,.2,.03,.31,.03,.72,0,1.43-.47,2.18-1.44,2.46-3.18,4.91-11.14,4.24-13.74l-.11-.44-.44-.1c-6.4-1.52-10.16-2.9-12.98-4.78-.18-.11-.36-.17-.54-.17h0Z"/></g><g><path class="cls-2" d="M133.89,73.72c-2.72-.65-4.81-3.56-6.57-6.37l-1.1,1.38c-2.92,3.64-3.8,4.74-4.89,4.74-.56,0-1.06-.31-1.77-.75-1.83-1.13-5.23-3.24-14.78-3.55h-.07l-.06-.03c-.11,0-.2,.01-.3,.02-.13,0-.28,.01-.42,.01-.34,0-.72-.04-.92-.3-.11-.15-.14-.33-.09-.52,1.65-5.59,2.65-14.74,0-22.15l-.18-.5h2.62c6.6-.02,14.79-.04,20.11-2.56v-5.24c-2.93,1.3-6.23,2.04-9.14,2.04-6.99,0-11.11-4.02-11.29-11.02-.02-.14,.04-.32,.16-.45,.12-.13,.28-.21,.46-.21,1.32,.13,2.61,.19,3.91,.19,6.14,0,12.61-1.46,17.75-4l.27-.13,.19,.24c4.94,6.19,10.41,6.27,13.35,6.32,1.26,.02,1.96,.03,2.19,.55,.19,.45-.09,.98-1.12,2.11-1.06,.99-3.65,16.14-1.35,23.2,.67,2.05,1.68,3.16,3.01,3.32h0c.15,.02,.25,.07,.33,.15,.27,.28,.28,.89,.23,2.25-.01,.31-.03,.56-.01,.66,.09,.52-.46,.73-.75,.84-.06,.02-.11,.04-.14,.06-4.03,1.86-7.38,6.14-9.17,9.52l-.14,.26-.28-.07Z"/><path class="cls-5" d="M127.47,24.79c8.51,10.67,18.91,3.59,14.43,8.49-1.44,1.17-5.38,26.29,1.89,27.15h.02c.42,0,.11,2.6,.2,2.77,.04,.26-.6,.4-.74,.49-3.94,1.82-7.38,6.04-9.3,9.66-2.68-.64-4.81-3.72-6.62-6.66-3.92,4.87-4.98,6.39-6.03,6.39-1.68,0-3.34-3.87-16.53-4.3-.03-.01-.1-.02-.18-.02-.18,0-.44,.02-.69,.02-.38,0-.73-.06-.65-.35,1.88-6.34,2.52-15.29-.01-22.37,7.26-.05,16.63,.23,22.57-2.7v-6.06c-2.85,1.35-6.28,2.25-9.51,2.25-5.66,0-10.71-2.76-10.92-10.66-.02-.14,.1-.28,.24-.28h.02c1.3,.13,2.6,.19,3.88,.19,6.79,0,13.24-1.72,17.91-4.04m.21-.94l-.54,.27c-5.09,2.52-11.5,3.96-17.58,3.96-1.28,0-2.56-.06-3.81-.19h-.1c-.28,0-.55,.12-.74,.33-.18,.2-.27,.47-.25,.74,.2,7.22,4.45,11.36,11.67,11.36,2.83,0,5.9-.65,8.76-1.85v4.43c-5.24,2.38-13.26,2.4-19.73,2.41-.71,0-1.41,0-2.09,0h-1.06l.36,1c2.62,7.32,1.63,16.38,0,21.91-.09,.32-.03,.62,.15,.86,.3,.4,.81,.45,1.22,.45,.15,0,.3,0,.44-.01,.09,0,.17,0,.23,0h.03l.13,.02c9.45,.31,12.79,2.38,14.59,3.49,.76,.47,1.3,.81,1.96,.81,1.27,0,2.18-1.13,5.18-4.88,.24-.3,.5-.63,.77-.97,1.74,2.73,3.82,5.45,6.52,6.1l.56,.13,.27-.51c1.77-3.33,5.05-7.54,8.95-9.33l.06-.03h.02s.06-.04,.09-.05c.31-.12,1.12-.43,.99-1.22v-.05c0-.11,0-.36,0-.56,.06-1.45,.05-2.13-.33-2.53-.16-.17-.38-.26-.61-.27-.99-.14-1.77-.9-2.37-2.32-2.67-6.35-.04-22.12,.95-23.51h.01l.04-.05c1.02-1.12,1.49-1.82,1.19-2.51-.32-.75-1.2-.76-2.53-.78-2.88-.04-8.23-.13-13.06-6.18l-.38-.47h0Z"/></g><g><path class="cls-2" d="M164.79,94.13c-.3,0-.57-.23-.82-.43-.07-.05-.12-.11-.17-.13-6-4.32-10.79-6.8-17.75-6.86h-.78c-.36,0-.7,0-.9-.25-.2-.24-.14-.54-.04-1.03,.04-.18,.08-.39,.12-.65,1.03-5.4,3.42-10.05,6.75-13.11l.13-.12,.18,.03c6.26,.91,13.55,5.97,17.54,8.76l4.61-1.48c-.45-3.86-.53-7.55-.61-11.45-.01-.6-.03-1.21-.04-1.82-4.63,2.83-10.13,5.04-15.57,6.22l-.19,.04-.14-.13c-2.83-2.61-6.29-5.41-10.52-6.38l-.35-.08,.06-.35c1.7-9.65,2.24-23.33-.38-32.14l-.12-.4,.4-.08c7.46-1.46,14.26-4.26,19.16-7.89,.05-.04,.17-.12,.36-.12,.17,0,.33,.06,.45,.11,.05,.02,.09,.04,.13,.04,5.37,1.69,9.81,2.81,14.26,2.81,3.28,0,6.47-.64,9.73-1.95l.07-.03h.15c.21-.01,.4,.09,.52,.27,.12,.18,.14,.39,.05,.58l-.78,1.99c-2.97,7.54-2.76,17.5-2.55,27.13,.09,4.24,.17,8.25,0,12,0,7.34,.26,12.27,.77,14.63l.08,.32c.17,.7,.25,1.06,.03,1.34-.22,.28-.58,.29-1.24,.3h-.4c-7.08,.23-15.64,4.19-21.82,10.1-.06,.1-.22,.17-.4,.17h0Z"/><path class="cls-5" d="M165.74,24.69c.18,0,.41,.14,.55,.15,5.33,1.69,9.84,2.81,14.29,2.81,3.22,0,6.42-.59,9.87-1.98,.03-.01,.05-.01,.08-.01,.16,0,.3,.18,.23,.34l-.78,2c-4.29,10.92-1.99,26.91-2.59,39.24,0,7.38,.26,12.34,.78,14.73,.38,1.64,.47,1.47-1.18,1.51-7.24,.23-15.86,4.25-22.07,10.2-.04,.05-.08,.07-.14,.07-.27,0-.7-.49-.84-.53-5.98-4.32-10.83-6.83-17.89-6.89-.08,0-.16,0-.23,0-.22,0-.4,0-.55,0-.91,0-.68-.1-.44-1.48,1.01-5.28,3.33-9.86,6.63-12.9,6.25,.91,13.7,6.13,17.53,8.8l5.08-1.63c-.58-4.78-.58-9.4-.7-14.19-4.72,2.99-10.39,5.3-16.01,6.52-3.22-2.97-6.65-5.54-10.69-6.47,1.75-9.97,2.21-23.56-.39-32.31,6.72-1.32,13.86-3.92,19.31-7.96,.04-.03,.08-.04,.13-.04m0-.75c-.22,0-.43,.07-.59,.2-4.86,3.59-11.6,6.36-19,7.81l-.81,.16,.23,.79c2.6,8.75,2.06,22.36,.37,31.97l-.12,.7,.69,.16c4.15,.95,7.56,3.72,10.35,6.29l.29,.26,.38-.08c5.26-1.15,10.59-3.24,15.13-5.94,0,.39,.02,.78,.03,1.17,.08,3.8,.16,7.41,.58,11.18l-4.14,1.32c-4.08-2.85-11.29-7.8-17.55-8.72l-.35-.05-.26,.24c-3.38,3.11-5.82,7.84-6.86,13.31-.05,.27-.09,.48-.12,.65-.11,.53-.2,.96,.11,1.34,.31,.39,.8,.39,1.19,.39h.77c6.86,.05,11.6,2.51,17.46,6.75l.12,.09h.03s.05,.05,.08,.07c.28,.23,.62,.52,1.06,.52,.27,0,.51-.11,.68-.3,6.11-5.83,14.56-9.74,21.54-9.96h.39c.72-.02,1.2-.02,1.53-.45,.33-.43,.22-.89,.04-1.66l-.08-.32c-.5-2.33-.75-7.23-.76-14.56,.18-3.72,.1-7.74,0-11.99-.2-9.59-.41-19.51,2.53-26.98l.78-2c.12-.28,.09-.63-.1-.91-.19-.29-.5-.46-.84-.46-.12,0-.23,.02-.34,.06-3.23,1.3-6.37,1.93-9.6,1.93-4.4,0-8.81-1.11-14.07-2.78l-.08-.03h-.04s-.04-.02-.07-.03c-.15-.06-.35-.13-.58-.13h0Z"/></g><g><path class="cls-2" d="M215.53,73.63c-5.39-3.02-12.74-4.89-19.2-4.89-1.23,0-2.41,.07-3.53,.2l-.68,.08,.3-.62c3.82-7.9,4.04-18.99,.65-32.96l-.09-.37,.37-.08c5.77-1.33,13.14-6.2,16.39-9.92,.08-.08,.12-.12,.16-.16,.2-.21,.44-.48,.75-.48h.11l.16,.08c7.44,2.52,12.71,3.56,18.08,3.56,1.94,0,3.85-.14,5.85-.42h.11c.18,0,.34,.07,.44,.2,.24,.3,.14,.78-.02,1.41-.03,.12-.06,.22-.07,.3v.14c-1.64,8.99-1.36,21.85,.71,32.77l.07,.36-.36,.07c-4.38,.88-12.78,3.42-19.75,10.64l-.2,.21-.25-.14Z"/><path class="cls-5" d="M210.65,24.81s.05,0,.07,.02c6.58,2.23,12.22,3.62,18.29,3.62,1.91,0,3.86-.14,5.9-.43,.02,0,.04,0,.05,0,.52,0-.09,1.45-.02,1.62-1.64,8.99-1.34,22.06,.72,32.91-6.62,1.32-14.11,4.71-19.95,10.75-5.43-3.04-12.84-4.94-19.38-4.94-1.23,0-2.43,.07-3.57,.21,3.47-7.16,4.41-17.82,.68-33.21,6.11-1.41,13.46-6.47,16.59-10.04,.11-.08,.42-.51,.62-.51m0-.75c-.47,0-.79,.35-1.02,.6-.02,.02-.04,.05-.06,.07l-.04,.03-.06,.07c-3.22,3.67-10.49,8.49-16.19,9.8l-.74,.17,.18,.74c3.37,13.88,3.16,24.89-.63,32.7l-.6,1.24,1.36-.16c1.1-.13,2.27-.2,3.48-.2,6.39,0,13.68,1.86,19.02,4.84l.5,.28,.4-.42c6.9-7.15,15.22-9.67,19.55-10.54l.73-.15-.14-.73c-2.03-10.71-2.32-23.83-.72-32.64l.04-.21v-.03c0-.05,.02-.11,.03-.17,.15-.59,.32-1.27-.05-1.74-.18-.23-.45-.36-.74-.36-.05,0-.11,0-.18,.01-1.97,.28-3.86,.42-5.78,.42-5.32,0-10.54-1.03-18-3.56-.11-.05-.23-.08-.36-.08h0Z"/></g><g><path class="cls-2" d="M265.52,79.3c-.41,0-2.05-1.75-2.21-2.06-.09-.18-.08-.32-.04-.41,2.6-9.58,2.48-19.74,2.35-29.56-.03-2.58-.07-5.24-.05-7.84l-8.74,3.91c.1,1.51,0,3.88-.13,6.59-.29,6.5-.74,16.31,2.13,17.03l.51,.13-.25,.38c0,.14,0,.48,.02,.76,.07,1.57,.05,2.28-.24,2.58l-.11,.12-.24,.04s-.05,0-.07,0h-18.35c-.34,0-.62-.28-.62-.62v-3.35l.32-.05c3.05-.49,2.46-15.72,2.1-24.83-.17-4.26-.31-7.96-.15-9.89l-2.69-1.16h-.08l-.17-.14c-.22-.22-.26-.68-.21-2.34,0-.28,.02-.5,0-.57-.02-.17,.02-.32,.11-.44,.22-.27,.62-.29,.98-.32,.09,0,.17,0,.22-.02,4.5-.64,10.03-1.86,13.79-2.81l.04-.04,.2-.02c.37,0,.66,.34,2.12,2.91,.2,.34,.42,.73,.5,.86l.04,.05c.13,.16,.16,.19,.12,3.6,0,.47-.01,.97-.01,1.36,5.28-3.91,7.9-6.5,9.34-7.92,1.1-1.09,1.6-1.58,2.2-1.58,.53,0,.93,.39,1.65,1.1,1.41,1.39,4.03,3.97,11,7.48l.24,.12-.04,.26c-.97,7.28-2.3,21.59-.33,35.63,.11,.53-.5,.72-.83,.83-.1,.03-.2,.06-.27,.1-5.57,2.07-9.89,6.23-13.35,9.56l-.63,.6h-.15Z"/><path class="cls-5" d="M268.23,23.99c1.17,0,2.09,3.31,12.48,8.54-1.36,10.17-2.06,23.42-.33,35.73,.06,.31-.59,.39-.9,.54-5.88,2.19-10.37,6.67-13.97,10.13h0c-.13,0-2.04-1.77-1.9-1.97,3.34-12.26,2.23-25.2,2.33-37.79l-.21-.23-9.3,4.16c.47,5.14-2.11,23.11,2.31,24.22-.11,.17,.26,3.26-.22,3.26-.01,0-.02,0-.03,0h-18.39c-.14,0-.25-.11-.25-.25v-3.03c4.82-.77,1.64-29.28,2.29-35.33l-3.03-1.31h0c-.29,0-.1-2.58-.15-2.74-.05-.38,.9-.28,1.08-.37,4.28-.6,9.86-1.81,13.86-2.83,0-.01,.02-.02,.03-.02,.37,0,2.24,3.6,2.37,3.68,.12,.15-.03,5.28,.04,5.45,9.49-6.95,10.8-9.85,11.9-9.85m0-.75c-.75,0-1.28,.53-2.46,1.69-1.37,1.35-3.84,3.79-8.7,7.43,0-.2,0-.41,0-.61,.04-3.54,.02-3.56-.2-3.83l-.03-.04c-.08-.13-.29-.5-.48-.83-1.53-2.69-1.85-3.09-2.44-3.09h-.33l-.09,.09c-3.74,.94-9.21,2.15-13.58,2.76l-.12,.02h-.03s-.08,.02-.13,.02c-.39,.03-.93,.07-1.24,.46-.16,.2-.23,.45-.2,.71h0c0,.11,0,.3,0,.53-.05,1.72-.01,2.27,.32,2.61l.22,.23h.18l2.41,1.05c-.13,2.02,.01,5.59,.17,9.67,.21,5.34,.44,11.39,.21,16.28-.35,7.33-1.62,8.1-2,8.16l-.63,.1v.64c0,.05,0,3.02,0,3.02,0,.55,.45,1,1,1h18.42c.24,0,.46-.09,.62-.26,.4-.42,.41-1.19,.34-2.85,0-.22-.02-.48-.02-.63l.48-.73-1.03-.26c-2.57-.64-2.12-10.66-1.85-16.65,.12-2.58,.22-4.84,.14-6.37l7.97-3.56c0,2.42,.02,4.88,.05,7.27,.12,9.79,.25,19.91-2.34,29.44-.06,.17-.08,.41,.07,.7,.13,.25,1.87,2.26,2.55,2.26h.12l.23-.05,.17-.16,.52-.5c3.44-3.31,7.73-7.44,13.19-9.47h.04l.04-.03c.06-.03,.14-.05,.22-.08,.31-.1,1.26-.41,1.08-1.29-1.96-13.95-.63-28.22,.34-35.48l.07-.53-.48-.24c-6.92-3.48-9.51-6.04-10.91-7.41-.77-.76-1.23-1.21-1.92-1.21h0Z"/></g><g><path class="cls-2" d="M285.76,27.74c-.57,0-1.14-.04-1.71-.12-.35-.03-.48-.25-.52-.37-.17-.47,.32-1.02,1.15-1.86,.17-.17,.31-.31,.38-.4v-.04l.08-.08c3.22-3.73,2.17-9.48-.63-12.67-.12-.14-.16-.29-.14-.45,.04-.32,.32-.53,.61-.76,.11-.09,.23-.17,.32-.27,2.63-2.09,3.35-4.63,4.26-7.84l.28-.98c.03-.15,.18-.45,.71-.45,.12,0,.26,.02,.4,.03,.1,.01,.2,.02,.29,.02,6.9,.61,10.68,4.32,10.42,10.19-.33,7.42-7.34,16.04-15.88,16.04h0Z"/><path class="cls-5" d="M290.54,1.84c.22,0,.49,.06,.69,.06h.03c18.43,1.64,8.37,25.47-5.5,25.47-.55,0-1.1-.04-1.66-.11-.94-.09,1.28-1.91,1.32-2.13,3.35-3.89,2.29-9.84-.64-13.16-.24-.3,.41-.6,.78-.96,2.95-2.35,3.55-5.22,4.63-8.98,.03-.14,.17-.18,.35-.18m0-.75c-.84,0-1.04,.58-1.08,.76-.09,.29-.18,.62-.27,.94-.93,3.27-1.6,5.63-4.1,7.62l-.03,.02-.03,.03c-.08,.08-.19,.16-.29,.24-.33,.25-.7,.54-.76,1.02-.03,.26,.05,.51,.22,.72,2.72,3.09,3.73,8.61,.65,12.19l-.14,.17v.03c-.08,.08-.2,.2-.29,.3-.81,.82-1.5,1.53-1.24,2.25,.06,.17,.26,.56,.85,.62,.55,.08,1.15,.12,1.73,.12,8.75,0,15.92-8.81,16.26-16.4,.27-6-3.73-9.95-10.7-10.57h-.09c-.08,0-.16-.01-.25-.03-.15-.02-.31-.03-.44-.03h0Z"/></g><g><path class="cls-2" d="M316.55,73.77c-3.7-3.57-9.08-3.94-14.28-4.29-.6-.04-2.08-.15-2.08-.15l-.05-.29c-.68-4,1.52-9.96,4-13l.11-.14h.18c4.65,.03,9.55,2.15,14.29,4.21,1.03,.45,2.06,.89,3.09,1.32,.56-3.45,.78-6.64,.69-9.73-5.8,.67-12.9,2.09-18.2,3.63l-.05,.02h-.13c-.17,.01-.33-.06-.43-.19-.25-.29-.2-.76-.1-1.4,.02-.14,.05-.34,.05-.4l-.03-.08,.02-.03c1.39-14.48-.43-19.8-1.12-21.81-.25-.74-.38-1.11-.17-1.44,.22-.34,.63-.38,1.53-.46,1.84-.17,6.16-.57,15.04-4.15l.07-.03h.07s.16-.09,.41-.2c1.22-.52,1.64-.67,1.85-.67h.17l.11,.11c3.59,1.95,9.87,3.28,17.7,3.73,.2,.01,.37,.11,.47,.26,.22,.35,.03,.87-.14,1.33-.04,.11-.1,.27-.11,.32-2.01,6.99-7.22,8.44-11.24,8.44h0c-3.25,0-7-.97-10.38-2.66-.14,2.49-.1,5.2,.1,7.9,5.82-1.53,11.9-2.37,17.16-2.37,.73,0,1.45,.02,2.16,.05l.38,.02-.02,.38c-.38,6.01-.72,18.01,.45,24.91v.12s.04,.14,.07,.27c.11,.45,.24,.96-.01,1.27-.11,.14-.27,.22-.46,.22h-.14c-8.47,0-15.76,1.78-20.54,5.02l-.25,.17-.22-.21Z"/><path class="cls-5" d="M321.3,24.87s.04,0,.04,.03c3.87,2.13,10.57,3.39,17.92,3.81,.56,.04-.15,1.26-.14,1.52-1.74,6.03-6.13,8.08-10.87,8.08-3.74,0-7.69-1.28-10.72-2.88-.19,2.81-.15,5.9,.1,8.97,5.58-1.5,11.8-2.47,17.5-2.47,.72,0,1.44,.02,2.14,.05-.43,6.76-.67,18.39,.45,25-.04,.24,.48,1.44-.03,1.44h-.14c-8.4,0-15.82,1.74-20.75,5.09-4.22-4.08-10.46-4.08-16.3-4.52-.63-3.71,1.33-9.52,3.92-12.7,5.7,.03,11.71,3.24,17.67,5.68,.64-3.81,.89-7.3,.75-10.67-5.87,.65-13.17,2.09-18.67,3.69-.03,0-.06,.01-.08,.01-.51,0-.03-1.47-.12-1.7,3.37-35.17-12.1-16.63,15.05-27.55h0c.07,0,1.96-.86,2.26-.86m0-.75c-.29,0-.68,.14-2.01,.7l-.19,.08h0l-.34,.13c-8.84,3.55-13.11,3.95-14.94,4.12-.96,.09-1.49,.14-1.81,.63-.31,.48-.14,.99,.13,1.77,.68,1.98,2.48,7.25,1.1,21.65l-.02,.17,.02,.05c0,.07-.02,.17-.04,.27-.09,.59-.2,1.26,.18,1.7,.14,.16,.32,.27,.53,.31l-.07,.09c-2.89,3.55-4.72,9.52-4.08,13.3l.1,.58,.58,.04c.59,.05,1.19,.09,1.79,.13,5.14,.35,10.45,.71,14.05,4.19l.44,.42,.5-.34c4.71-3.2,11.93-4.96,20.33-4.96h.13c.31,0,.59-.13,.76-.36,.36-.46,.2-1.09,.08-1.59-.02-.08-.04-.15-.05-.2v-.16c-1.18-6.86-.84-18.83-.46-24.82l.05-.76-.76-.03c-.7-.03-1.44-.05-2.18-.05-5.16,0-11.1,.8-16.82,2.27-.16-2.33-.19-4.65-.1-6.83,3.29,1.56,6.89,2.45,10.03,2.45,4.15,0,9.53-1.5,11.59-8.62l.03-.12v-.04c.02-.06,.05-.13,.08-.22,.19-.51,.43-1.15,.11-1.66-.16-.25-.44-.41-.75-.43-7.73-.45-13.92-1.75-17.47-3.65l-.15-.18h-.38Zm-16.36,31.41c5.12-1.45,11.69-2.75,17.19-3.41,.06,2.79-.14,5.68-.62,8.78-.89-.37-1.78-.76-2.64-1.14-4.6-2-9.35-4.06-13.93-4.23h0Z"/></g><g><path class="cls-2" d="M409.38,91.93c-10.66,0-16.98-4.81-23.09-9.46-5.31-4.04-10.32-7.85-17.7-7.85-1.88,0-3.88,.25-5.96,.75h-.03c-.44,0-.58-.19-.63-.31-.22-.47,.28-1.1,1.11-2.09,.15-.17,.32-.38,.39-.48v-.04l.07-.09c7.37-9.75,9.94-26.66,1.86-35.34-.35-.31-.05-.82,.11-1.09,.04-.06,.08-.12,.09-.16,3.17-5.96,5.96-15.26,3.45-22.04-1.22-3.31-3.59-5.67-7.05-7.02l-8.5-3.41c-.3-.12-.46-.44-.37-.75,.08-.27,.32-.46,.6-.46h.1l9.03,1.5c1.67,.22,3.4,.32,5.27,.32,4.21,0,8.46-.56,12.57-1.1,4.13-.54,8.41-1.1,12.66-1.1,2.9,0,5.53,.26,8.04,.78,.26,.02,.5,.26,.52,.57,.02,.32-.18,.59-.49,.65l-5.78,1.36c-10.73,2.56-10.34,16.83-9.99,29.42,.1,3.49,.19,6.79,.02,9.58,.02,.51,.04,1.08,.06,1.65,.15,4.64,.33,9.89,2.62,13.44l.03,.05v.06s.1,.12,.18,.22c.28,.38,.6,.8,.49,1.19-.05,.17-.17,.31-.35,.38-.45,.21-.96,.43-1.48,.65-1.81,.76-3.85,1.63-4.94,3.05,1.64,2.65,4.21,5.33,7.66,7.99,3.58,2.76,6.58,4.5,8.73,5.58-.26-.38-.53-.8-.77-1.27-.68-1.35-2.83-5.79-2.09-6.47l.26-.24,.25,.25c.12,.12,12.75,11.96,28.74,11.96,2.3,0,4.59-.25,6.8-.74l.04-.02h.14c.48-.01,.7,.55,1.22,2.46,.08,.29,.18,.66,.21,.74,.09,.2,.08,.36,.02,.5-.14,.31-.52,.45-.85,.57-.09,.03-.17,.06-.22,.09-8.92,3.88-16.45,5.75-23.07,5.75h0Z"/><path class="cls-5" d="M393.37,2.09c2.64,0,5.29,.21,7.97,.77,.27,.02,.3,.44,.03,.49l-5.79,1.36c-14.14,3.37-9.48,26.71-10.26,39.35,.2,5.11,.1,11.24,2.74,15.32,.06,.23,1.02,1.16,.53,1.35-2.25,1.05-5.33,1.97-6.74,4.03,1.79,2.99,4.66,5.82,7.89,8.31,3.8,2.93,7.3,4.98,10.07,6.22-.4-.63-1.05-1.4-1.54-2.38-1.11-2.21-2.57-5.66-2.17-6.02,1.31,1.28,13.59,12.07,29,12.07,2.25,0,4.58-.23,6.94-.76,.01,0,.03-.01,.04-.01,.4,0,.98,2.89,1.11,3.03,.14,.37-.78,.52-.96,.66-9.46,4.1-16.83,5.68-22.84,5.68-19.93,0-24.87-17.32-40.79-17.32-1.85,0-3.85,.23-6.04,.76h0c-.99,0,1.28-2.19,1.3-2.42,7.39-9.78,10.09-26.95,1.83-35.82-.21-.18,.22-.68,.28-.88,4.85-9.1,8.26-24.81-3.81-29.52l-8.5-3.41c-.12-.05-.18-.18-.15-.3,.03-.11,.13-.18,.24-.18,.01,0,.03,0,.04,0l9.03,1.49c1.79,.23,3.56,.33,5.33,.33,8.47,0,16.77-2.2,25.23-2.2m0-.75h0c-4.28,0-8.56,.56-12.71,1.11-4.1,.54-8.34,1.09-12.53,1.09-1.86,0-3.57-.11-5.24-.32h0c-.12-.02-.24-.04-.36-.06l-1.02-.17-3.1-.51-4.52-.75h-.16c-.44-.01-.84,.29-.96,.71-.14,.5,.12,1.01,.59,1.2l8.49,3.41c3.35,1.31,5.65,3.6,6.84,6.8,2.46,6.66-.3,15.84-3.41,21.67l-.03,.06-.02,.06h0s-.03,.04-.06,.09c-.17,.28-.6,1.02-.04,1.56,7.94,8.54,5.37,25.21-1.9,34.84l-.14,.18v.04c-.08,.1-.21,.25-.31,.37-.93,1.1-1.48,1.81-1.17,2.49,.07,.16,.31,.54,.92,.54h.09l.09-.02c2.05-.49,4.02-.74,5.87-.74,7.26,0,12.22,3.78,17.48,7.78,6.16,4.69,12.54,9.54,23.31,9.54,6.67,0,14.24-1.88,23.14-5.74l.09-.04,.03-.03s.09-.03,.15-.05c.36-.13,.86-.31,1.07-.77,.11-.23,.11-.49,.02-.74l-.05-.14h0c-.04-.14-.11-.4-.17-.61-.51-1.91-.78-2.75-1.58-2.75h-.19l-.1,.05c-2.18,.48-4.43,.72-6.69,.72-15.84,0-28.36-11.74-28.48-11.86l-.51-.49-.52,.48c-.28,.25-1.01,.92,2.01,6.91,.03,.05,.05,.1,.08,.15-2-1.08-4.54-2.66-7.48-4.92-3.32-2.56-5.82-5.13-7.43-7.67,1.07-1.23,2.95-2.03,4.63-2.74,.53-.22,1.04-.44,1.52-.66,.24-.1,.45-.32,.53-.61,.16-.57-.23-1.09-.55-1.52-.05-.06-.09-.12-.12-.17v-.04l-.08-.1c-2.24-3.47-2.41-8.67-2.56-13.26-.02-.56-.04-1.11-.06-1.65,.17-2.8,.08-6.09-.02-9.58-.35-12.45-.74-26.56,9.7-29.05v-.02c.23-.03,.52-.1,.9-.19l1.99-.47,2.9-.68c.47-.1,.8-.53,.76-1.04-.03-.48-.38-.86-.85-.92-2.53-.53-5.18-.78-8.09-.78h0Z"/></g><g><path class="cls-2" d="M431.93,73.72c-2.71-.65-4.81-3.56-6.57-6.38l-1.1,1.37c-2.92,3.65-3.8,4.75-4.89,4.75-.56,0-1.06-.31-1.77-.75-1.83-1.13-5.23-3.24-14.77-3.55h-.07l-.06-.03c-.11,0-.21,.01-.31,.02-.13,0-.28,.01-.42,.01-.34,0-.72-.04-.92-.3-.11-.15-.14-.33-.09-.52,1.65-5.59,2.64-14.74,0-22.15l-.18-.5h2.6c6.61-.02,14.81-.04,20.12-2.56v-5.24c-2.93,1.3-6.23,2.04-9.14,2.04-6.99,0-11.11-4.02-11.29-11.02-.02-.13,.03-.31,.15-.45,.12-.14,.29-.22,.46-.22,1.32,.13,2.62,.2,3.92,.2,6.14,0,12.6-1.46,17.74-4l.27-.13,.19,.24c4.94,6.19,10.41,6.27,13.35,6.32,1.27,.02,1.96,.03,2.19,.56,.19,.45-.09,.98-1.12,2.11-1.06,.99-3.65,16.14-1.35,23.2,.67,2.05,1.68,3.17,3.01,3.32h0c.15,.02,.25,.07,.33,.15,.27,.28,.28,.89,.23,2.25-.01,.31-.03,.56-.01,.66,.09,.52-.46,.73-.75,.84-.06,.02-.11,.04-.14,.06-4.04,1.86-7.38,6.14-9.17,9.53l-.14,.26-.28-.07Z"/><path class="cls-5" d="M425.51,24.79c8.51,10.67,18.91,3.59,14.43,8.49-1.44,1.17-5.38,26.29,1.89,27.15h.02c.42,0,.11,2.6,.2,2.77,.04,.26-.6,.4-.74,.49-3.94,1.82-7.38,6.04-9.3,9.66-2.68-.64-4.81-3.72-6.62-6.66-3.92,4.87-4.98,6.39-6.03,6.39-1.68,0-3.34-3.87-16.53-4.3-.03-.01-.1-.02-.18-.02-.18,0-.44,.02-.69,.02-.38,0-.73-.06-.65-.35,1.88-6.34,2.52-15.29-.01-22.37,7.26-.04,16.63,.24,22.57-2.7v-6.06c-2.85,1.35-6.28,2.25-9.51,2.25-5.66,0-10.71-2.76-10.92-10.66-.02-.14,.1-.28,.24-.28h.02c1.3,.13,2.6,.2,3.89,.2,6.78,0,13.23-1.72,17.91-4.04m.21-.94l-.54,.27c-5.09,2.52-11.49,3.96-17.57,3.96-1.29,0-2.57-.06-3.82-.19h-.1c-.28,0-.55,.12-.74,.34-.18,.21-.26,.47-.24,.73,.2,7.22,4.45,11.36,11.67,11.36,2.83,0,5.9-.65,8.76-1.85v4.43c-5.25,2.39-13.27,2.4-19.75,2.41-.71,0-1.4,0-2.07,0h-1.06l.36,1c2.62,7.32,1.63,16.38,0,21.91-.09,.32-.03,.62,.15,.86,.3,.4,.81,.45,1.22,.45,.15,0,.3,0,.44-.01,.09,0,.17,0,.23,0h.03l.13,.02c9.45,.31,12.79,2.38,14.59,3.49,.76,.47,1.3,.81,1.96,.81,1.27,0,2.18-1.13,5.18-4.89,.24-.3,.5-.62,.77-.96,1.74,2.73,3.82,5.45,6.52,6.1l.56,.14,.27-.51c1.77-3.33,5.05-7.53,8.95-9.33l.06-.03h.02s.06-.04,.09-.05c.31-.12,1.12-.43,.99-1.22v-.05c0-.11,0-.36,0-.56,.06-1.45,.05-2.13-.33-2.53-.16-.17-.38-.26-.61-.27-1-.14-1.77-.9-2.37-2.33-2.67-6.35-.04-22.12,.95-23.51h.01l.04-.05c1.02-1.12,1.49-1.82,1.19-2.51-.32-.75-1.2-.76-2.53-.78-2.88-.04-8.24-.13-13.06-6.18l-.38-.47h0Z"/></g><g><path class="cls-2" d="M454.51,20.55l-.15-.04-.07-.06c-.46-.42-.91-.84-1.37-1.27-1.48-1.38-3.02-2.81-4.91-4.14-.5-.46-1.02-.83-1.53-1.18-.93-.65-1.81-1.26-2.27-2.18l-.09-.18,.1-.18c1.96-3.34,5.1-8.06,9.64-10.43,.11-.05,.2-.1,.29-.15,.24-.13,.48-.27,.73-.27,.2,0,.37,.09,.47,.25,1.78,2.19,3.93,3.94,8.5,6.94,.23,.15,.43,.27,.6,.38,.59,.37,.89,.56,.9,.92,0,.35-.27,.55-.82,.94-.17,.12-.37,.26-.61,.44-3.98,2.9-6.32,4.73-8.24,8.59l-.03,.06-.04,.04s-.06,.15-.13,.31c-.36,.8-.57,1.22-.94,1.22h-.05Z"/><path class="cls-5" d="M454.89,.84c.07,0,.12,.02,.16,.08,1.92,2.36,4.2,4.16,8.61,7.04,1.79,1.17,1.75,.8,.06,2.06-4.02,2.93-6.39,4.79-8.35,8.72-.11,.1-.59,1.42-.81,1.42h-.01c-1.95-1.77-3.82-3.69-6.32-5.44-1.29-1.2-3.02-1.9-3.68-3.23,2.11-3.6,5.19-8.04,9.49-10.28,.24-.09,.61-.38,.85-.38m0-.75c-.35,0-.65,.17-.91,.32-.07,.04-.14,.09-.21,.11l-.04,.02-.04,.02c-4.63,2.41-7.81,7.19-9.79,10.57l-.21,.35,.18,.36c.5,1.01,1.46,1.68,2.39,2.32,.5,.35,1.01,.71,1.45,1.12l.04,.04,.04,.03c1.87,1.31,3.39,2.73,4.86,4.1,.46,.43,.92,.86,1.38,1.27l.14,.12,.18,.05,.09,.02h.11c.64,0,.91-.6,1.29-1.44,.05-.1,.09-.2,.12-.26l.02-.02,.06-.11c1.88-3.78,4.19-5.59,8.12-8.45,.24-.18,.44-.32,.6-.44,.58-.41,.99-.7,.98-1.25-.02-.56-.44-.82-1.08-1.22-.17-.1-.36-.23-.59-.38-4.52-2.96-6.65-4.7-8.43-6.87-.18-.24-.45-.38-.76-.38h0Z"/></g><g><path class="cls-2" d="M450.82,73.36c-4.72-4.16-4.3-17.91-3.93-30.05,.13-4.14,.25-8.06,.12-11.02-.15-.07-.4-.16-.68-.28-2.28-.92-2.62-1.14-2.7-1.45l-.05-.18,.06-.09c0-.12,0-.39-.02-.62-.06-1.34-.04-1.94,.22-2.22l.11-.12,.24-.04c2.56-.23,5.54-.9,8.43-1.54,2.36-.53,4.59-1.02,6.54-1.28l.41-.05v.33c.12,.19,.49,.81,.82,1.35,1.12,1.86,1.33,2.21,1.33,2.39,.4,1.97,.22,7.05,0,12.92-.36,9.88-.91,24.81,1.96,25.29h.02l.23,.13c.22,.23,.27,.75,.22,2.64,0,.33-.02,.59,0,.67,0,.38-.23,.65-.54,.69-2.3,.17-4.48,.77-6.59,1.34-1.9,.52-3.87,1.06-5.91,1.28l-.16,.02-.12-.11Z"/><path class="cls-5" d="M459.22,24.85c0,.09,2.16,3.56,2.13,3.67,1.18,5.44-2.6,37.74,2.28,38.56h0c.3,0,.1,2.99,.15,3.13,0,.13-.09,.23-.22,.25-4.38,.32-8.24,2.16-12.5,2.63-6.28-5.53-3.15-29.89-3.69-41.03-.07-.11-3.58-1.37-3.37-1.62,.09-.18-.22-2.76,.2-2.76h.02c4.68-.43,10.68-2.26,15-2.83m.71-.85l-.81,.11c-1.96,.26-4.2,.76-6.57,1.29-2.86,.64-5.81,1.3-8.35,1.54-.23,0-.45,.1-.62,.27-.38,.39-.39,1.06-.33,2.49,0,.14,.01,.32,.02,.45l-.09,.11,.08,.41c.13,.51,.51,.73,2.92,1.71,.15,.06,.31,.13,.45,.18,.11,2.92,0,6.73-.13,10.75-.37,12.22-.8,26.08,4.06,30.35l.25,.22,.33-.04c2.07-.23,4.05-.77,5.97-1.29,2.09-.57,4.26-1.17,6.5-1.33,.54-.07,.91-.49,.91-1v-.16c-.01-.12,0-.32,0-.57,.05-2.09,0-2.58-.32-2.91l-.22-.23h-.27c-.31-.1-1.51-.91-1.83-8.16-.22-4.93,.01-11.21,.21-16.75,.21-5.82,.4-10.87,0-12.94,0-.26-.25-.67-1.39-2.57-.28-.47-.62-1.03-.75-1.27l-.03-.65h0Z"/></g><g><path class="cls-2" d="M474.88,71.03c-6.08,0-6.28-.22-6.46-.42l-.11-.12v-3.26c-.11-.51,.58-.66,.91-.73,.08-.02,.15-.03,.19-.05,2.12-1.95,1.66-14.65,1.32-23.92-.16-4.4-.3-8.23-.15-10.34l-2.7-1.17h-.08l-.17-.14c-.22-.22-.26-.68-.21-2.34,0-.28,.02-.49,0-.57-.02-.17,.02-.32,.12-.44,.22-.26,.62-.29,.98-.32,.09,0,.17,0,.22-.02,4.03-.57,9.51-1.74,13.18-2.66,.1-.02,.18-.04,.27-.07,.19-.06,.4-.12,.6-.12,.38,0,.52,.24,.56,.34l2.1,3.5c.1,.1,.13,.13,.09,4.95,0,.47,0,.96-.01,1.4,1.68-3.36,2.6-5.68,3.24-7.27,.83-2.08,1.17-2.94,2.1-2.94,.49,0,1.06,.28,1.99,.74,1.72,.85,4.93,2.45,11.1,3.78l.29,.06v.29c.16,5.8-2.55,11.48-5.3,14.55l-.12,.14h-.18c-1.14-.09-2.48-.87-3.9-1.69-.97-.56-1.97-1.14-2.84-1.44l-6.36,8.95v11.77c-.13,3.63,1.09,4,3.53,4.72,.41,.12,.84,.25,1.3,.4l.48,.16-.25,.35c0,.15,0,.54,.02,.86,.07,1.74,.05,2.52-.24,2.83l-.11,.12-.24,.04s-.1,0-.15-.02h-.02c-.08-.02-.38-.04-1.39-.04-1.22,0-3.06,.02-5.14,.05-2.7,.04-5.79,.08-8.44,.08Z"/><path class="cls-5" d="M490.86,24.7c1.24,0,3.77,2.52,13.01,4.51,.15,5.55-2.35,11.1-5.21,14.29-1.91-.13-4.75-2.58-6.91-3.18l-6.58,9.27v11.89c-.16,4.54,1.83,4.39,5.08,5.48-.12,.16,.27,3.62-.21,3.62-.01,0-.02,0-.04,0-.04-.04-.6-.05-1.53-.05-2.8,0-8.89,.13-13.58,.13-3.5,0-6.22-.07-6.2-.33v-3.09c-.06-.32,.76-.35,.9-.45,3.41-3.11,.83-28.52,1.38-34.82l-3.03-1.31h0c-.29,0-.1-2.58-.15-2.74-.05-.38,.9-.28,1.08-.37,3.97-.55,9.46-1.73,13.14-2.65,.18-.02,.54-.18,.77-.18,.1,0,.18,.03,.22,.11l2.13,3.55c.12,.14-.03,7.53,.04,7.69,4.5-8.7,4.41-11.37,5.69-11.37m0-.75c-1.18,0-1.58,1-2.44,3.18-.53,1.34-1.27,3.2-2.5,5.77,.04-4.53,.04-4.71-.2-4.98-.2-.34-.71-1.19-2.05-3.43-.16-.32-.49-.5-.88-.5-.25,0-.5,.07-.7,.14-.07,.02-.12,.04-.17,.05h-.02l-.06,.02c-3.66,.92-9.12,2.08-13.06,2.63l-.12,.02h-.03s-.08,.02-.13,.02c-.39,.03-.92,.07-1.24,.46-.16,.2-.23,.45-.2,.71h0c0,.11,0,.29,0,.53-.05,1.72-.01,2.27,.32,2.61l.22,.23h.18l2.42,1.06c-.12,2.17,.02,5.88,.17,10.11,.31,8.54,.77,21.36-1.17,23.57h-.04c-.89,.2-1.29,.61-1.2,1.2,0,.12,0,.25,0,.38v2.58l-.02,.3,.24,.27c.29,.31,.5,.54,6.74,.54,2.65,0,5.73-.04,8.45-.08,2.11-.03,3.92-.05,5.14-.05,.91,0,1.22,.02,1.32,.02l.09,.03h.15c.23,0,.45-.09,.62-.26,.39-.4,.42-1.13,.34-3.1-.01-.25-.02-.55-.02-.72l.48-.66-.96-.32c-.46-.15-.9-.29-1.31-.41-2.46-.73-3.38-1.01-3.26-4.33,0-.09,0-10,0-11.68l6.12-8.62c.77,.3,1.65,.81,2.51,1.31,1.46,.85,2.83,1.64,4.06,1.73l.36,.03,.24-.27c2.6-2.89,5.58-8.5,5.41-14.81l-.02-.59-.58-.12c-6.12-1.32-9.18-2.84-11.01-3.75-.98-.49-1.58-.78-2.16-.78h0Z"/></g></g></g><g id="Layer_1"><g><g><path class="cls-4" d="M41.16,73.46c-10.62-4.37-23.38-5.25-33.66-5.45,8.4-7.23,8.63-20.42,3.86-29.11,2.62-4.27,2.7-10.14,2.78-15.33,.02-1.14,.03-2.24,.08-3.27,.51-7.47-3.6-11.77-7.89-15.11,1.48,0,2.95,0,4.4-.01,9.71-.01,18.88-.02,28.56-1.53,3.8,2.26,9.69,4.7,14.83,6.14,.37,7.26,2.05,12.67,3.98,18.91,.6,1.93,1.21,3.89,1.81,6.01-3.26,8.75-4.39,18.6-3.05,26.52-7.02,1.66-11.25,6.79-15.71,12.22Zm2.24-61.34c-4.01,.07-11.72,.5-18.37,2.63l-.67,.21-.03,.7c-.65,17.43-.44,32.27,.63,45.37l.06,.7,.67,.19c3.39,.94,7.77,1.91,11.42,2.52l.67,.11,.35-.59c1.4-2.35,4.29-4.7,7.37-6l.58-.25,.03-.63c.27-6.55,.93-15.97,3.57-22.09l.15-.35-.12-.36c-2.82-8.6-4.61-15.76-5.3-21.28l-.11-.89-.9,.02Z"/><path class="cls-5" d="M39.2,4.17c3.75,2.21,9.42,4.56,14.45,6,.41,7.14,2.07,12.51,4,18.71,.57,1.85,1.17,3.76,1.75,5.81-3.18,8.62-4.32,18.29-3.09,26.17-6.79,1.77-10.96,6.71-15.29,11.99-10.2-4.11-22.27-5.07-32.25-5.32,7.6-7.47,7.73-20.09,3.18-28.63,2.54-4.36,2.63-10.18,2.71-15.33,.02-1.15,.03-2.24,.07-3.23,.48-7.07-3.01-11.37-6.97-14.66,1,0,2,0,3,0,9.66-.01,18.79-.02,28.45-1.5m-1.16,60.92l.35-.59,.18-.29c1.35-2.26,4.15-4.54,7.13-5.8l.29-.12,.59-.25,.03-.63v-.32c.28-6.51,.94-15.87,3.54-21.91l.08-.17,.15-.35-.12-.36-.06-.18c-2.81-8.57-4.59-15.7-5.28-21.19l-.06-.45-.11-.89-.9,.02h-.45c-4.03,.08-11.8,.52-18.51,2.66l-.33,.11-.67,.21-.03,.7v.35c-.66,17.45-.45,32.31,.61,45.43l.03,.35,.06,.7,.67,.19,.33,.09c3.41,.95,7.8,1.92,11.47,2.53l.34,.06,.67,.11m1.36-61.96c-9.71,1.52-18.91,1.54-28.65,1.55-1.94,0-3.9,0-5.89,.02,5.12,3.79,9.38,8.03,8.87,15.58-.04,1.03-.06,2.14-.08,3.28-.08,5.23-.17,11.15-2.86,15.32,5.23,9.24,4.47,22.84-4.68,29.61,11.5,.16,24.43,1.05,35.21,5.58l.18-.22c4.51-5.5,8.78-10.7,15.95-12.21-1.47-7.98-.36-17.97,3-26.88-.62-2.19-1.25-4.22-1.86-6.18-1.96-6.31-3.65-11.77-3.98-19.16-5.22-1.42-11.38-3.97-15.21-6.28h0Zm-1.87,60.86l-.34-.06c-3.63-.6-7.99-1.56-11.36-2.51l-.34-.09-.03-.35c-1.06-13.08-1.27-27.9-.62-45.31v-.35l.35-.11c6.59-2.11,14.25-2.54,18.23-2.61h.45l.06,.44c.7,5.55,2.49,12.74,5.32,21.37l.06,.18-.08,.17c-2.67,6.2-3.34,15.68-3.61,22.27v.32l-.3,.12c-3.17,1.34-6.16,3.78-7.6,6.21l-.17,.29h0Z"/></g><g><path class="cls-4" d="M69.68,68.86c2.72-2.7,2.59-12.87,2.1-26.71-.17-4.67-.32-9.06-.04-10.16l.21-.83-2.56-1.11c3.7-.61,7.98-1.54,10.88-2.24l1.08,1.8v15.17l1.85-2.98c2.66-4.29,4.89-8.81,6.8-13.78,2.38,1.25,5.68,2.4,10.03,3.5-.61,4.17-1.86,7.5-3.7,9.92-.19-.1-.4-.22-.62-.34-3.53-1.93-5.02-2.58-5.92-2.58-.32,0-.59,.08-.82,.24l-.07,.05-7.56,10.6v12.62c.06,3.92,1.13,5.87,3.97,6.83h-15.64Z"/><path class="cls-5" d="M80.02,28.38l.82,1.37v16.78l1.85-2.98,.92-1.49c2.59-4.17,4.77-8.55,6.64-13.35,2.29,1.13,5.32,2.17,9.2,3.17-.59,3.68-1.69,6.67-3.28,8.9l-.26-.14c-3.63-1.99-5.12-2.63-6.14-2.63-.43,0-.8,.11-1.11,.34l-.13,.1-.1,.13-7.42,10.4-.19,.26v12.79c.05,3.12,.74,5.09,2.38,6.32h-12.53c1.99-3.29,2.1-11.43,1.57-26.24-.16-4.41-.32-8.97-.05-10.01l.11-.41,.21-.83-.78-.34-.62-.27c3.13-.56,6.45-1.29,8.9-1.88m.48-1.15c-3.58,.88-8.67,1.97-12.53,2.53v.22l3.39,1.46-.11,.41c-.3,1.18-.15,5.41,.02,10.31,.5,14.07,.64,25.02-2.41,26.69v.5h18.06v-.6c-3.77-.74-5.01-2.43-5.08-6.73v-12.46l7.42-10.4c.13-.1,.3-.15,.52-.15,.82,0,2.38,.71,5.66,2.5,.38,.21,.76,.41,1.01,.55,2.11-2.6,3.5-6.27,4.12-10.94-4.84-1.2-8.41-2.46-10.86-3.83-1.94,5.15-4.22,9.81-6.96,14.23l-.92,1.49v-13.55l-1.34-2.24h0Z"/></g><g><path class="cls-4" d="M120.42,71.06c-4.4-2.46-9.11-3.69-15.16-3.95,1.08-4.74,1.71-12.06,.17-18.32,1.29,.09,2.59,.14,3.88,.14,6.46,0,12.63-1.16,17.36-3.28l.59-.26v-11.06l-1.43,.69c-1.81,.87-6.48,2.88-10.8,2.88-1.74,0-3.23-.34-4.43-1-1.81-1-2.97-2.8-3.47-5.36,.56,.02,1.12,.03,1.67,.03,6.52,0,12.78-1.3,17.27-3.59,3.91,4.01,7.48,5.75,12.44,6.04-1.84,5.15-3.13,19.46-.34,25.82,.61,1.38,1.39,2.34,2.33,2.84-3.44,1.91-6.41,5.35-8.21,8.21-2.08-1.71-3.75-4.43-4.58-6.34l-.36-.83v-15.18l-1.35,.51c-3.64,1.37-6.62,2.19-8.84,2.44l-.87,.1-.21,10.8,.93,.09c.95,.09,1.82,.14,2.67,.19,2.02,.12,3.93,.23,6.45,.85l.48,.12-6.17,7.42Z"/><path class="cls-5" d="M125.96,28.59c3.74,3.75,7.21,5.49,11.87,5.88-1.75,5.69-2.85,19.36-.12,25.57,.5,1.14,1.12,2.02,1.86,2.61-3.03,1.89-5.65,4.87-7.38,7.48-1.81-1.65-3.26-4.06-4.01-5.78l-.32-.73v-15.8l-1.35,.51-.68,.25c-3.61,1.35-6.54,2.16-8.72,2.41l-.44,.05-.87,.1-.02,.88-.2,9.9-.02,.93,.93,.09,.46,.04c.98,.09,1.88,.14,2.69,.19,1.92,.11,3.73,.22,6.06,.77l-5.39,6.49c-4.22-2.29-8.74-3.48-14.42-3.78,.98-4.63,1.5-11.37,.19-17.31,1.08,.06,2.17,.09,3.24,.09,6.53,0,12.77-1.18,17.57-3.32l.3-.13,.59-.26v-12.17l-1.43,.69-.72,.34c-1.78,.85-6.36,2.84-10.58,2.84-1.66,0-3.07-.32-4.19-.94-1.52-.85-2.56-2.33-3.09-4.41,.35,0,.7,.01,1.04,.01,6.44,0,12.64-1.26,17.17-3.48m.2-1.22c-4.48,2.37-10.78,3.7-17.37,3.7-.75,0-1.51-.02-2.27-.05,.45,3.04,1.74,5.16,3.83,6.32,1.38,.77,3,1.06,4.67,1.06,4.45,0,9.27-2.1,11.02-2.93l.72-.34v9.94l-.3,.13c-4.73,2.11-10.79,3.23-17.16,3.23-1.5,0-3.02-.06-4.54-.19,1.71,6.2,1.2,13.98-.13,19.35,6.4,.2,11.35,1.48,15.9,4.11l6.39-7.69,.32,.74c.94,2.15,2.83,5.16,5.17,6.88,1.83-3.06,5.16-7.01,9.01-8.86v-.25c-1.16-.3-2.1-1.26-2.81-2.88-2.83-6.45-1.36-21.68,.6-26.09-5.33-.17-8.97-1.9-13.07-6.19h0Zm.69,35.82l-.62-.15c-2.56-.63-4.49-.75-6.54-.87-.84-.05-1.71-.1-2.65-.19l-.46-.04,.2-9.9,.44-.05c2.27-.25,5.28-1.08,8.96-2.47l.68-.25v13.92h0Z"/></g><g><path class="cls-4" d="M163.78,91.47c-5.44-3.86-10.53-6.48-17.32-6.81,.91-3.89,2.7-7.41,4.96-9.77,5.81,1.55,12.46,6.04,15.93,8.6l.41,.3,7.97-2.55-.12-.83c-.58-4.21-.67-8.21-.76-12.45-.03-1.55-.07-3.15-.12-4.82l-.06-1.87-1.52,1.09c-4.45,3.19-10.28,5.8-16.03,7.19-2.67-2.62-5.65-4.51-8.86-5.63,1.82-9.06,1.77-21.07-.11-29.01,6.01-1.27,12.21-3.89,17.11-7.25,5.1,1.55,9.73,2.81,14.47,2.81,2.25,0,4.43-.29,6.65-.87-2.46,7.74-2.26,17.14-2.07,26.23,.09,4.19,.17,8.15,0,11.83,0,6.62,.21,11.37,.62,14.17-7,.58-15.02,4.22-21.16,9.63Zm.87-56.79c-1.2,1.21-3.55,3-5.03,3.84l-.56,.31,.05,.64c.37,4.46,.44,15.48-.17,20.64l-.14,1.21,1.22-.1c5.4-.44,10.72-1.96,14.24-4.06l.48-.29v-.56c.01-1.23,.01-2.49,.01-3.74,0-5.34,0-10.87,.78-15.24l.21-1.16-1.17-.02c-2.61-.04-5.92-.69-8.86-1.72l-.6-.21-.45,.45Z"/><path class="cls-5" d="M165.35,28.21c5.05,1.53,9.65,2.77,14.39,2.77,2,0,3.95-.22,5.91-.67-2.21,7.65-2.02,16.74-1.83,25.55,.09,4.18,.17,8.13,0,11.8v.07c0,6.21,.18,10.8,.55,13.67-6.94,.7-14.52,4.17-20.63,9.44-5.23-3.67-10.18-6.2-16.66-6.64,.9-3.46,2.49-6.57,4.49-8.75,5.66,1.6,12.09,5.94,15.48,8.44l.21,.15,.41,.3,.49-.16,7.32-2.34,.8-.26-.12-.83-.06-.42c-.58-4.19-.66-8.17-.75-12.4-.03-1.55-.07-3.14-.12-4.82l-.03-.93-.06-1.87-1.52,1.09-.76,.54c-4.33,3.1-9.98,5.66-15.59,7.05-2.56-2.46-5.39-4.28-8.44-5.4,1.71-8.88,1.67-20.43-.09-28.31,5.84-1.3,11.81-3.84,16.6-7.08m-7.13,33.67l1.22-.1,.61-.05c5.47-.45,10.88-1.99,14.45-4.13l.24-.14,.48-.29v-.84c.02-1.24,.02-2.49,.02-3.75,0-5.32,0-10.83,.77-15.15l.1-.58,.21-1.16-1.17-.02h-.59c-2.56-.05-5.81-.69-8.7-1.71l-.3-.11-.6-.21-.45,.45-.22,.23c-1.15,1.16-3.5,2.95-4.92,3.76l-.28,.16-.56,.31,.05,.64,.03,.32c.37,4.44,.44,15.41-.17,20.54l-.07,.61-.14,1.21m6.96-34.77c-5.05,3.5-11.43,6.18-17.64,7.41,2.01,7.96,2.08,20.52,.14,29.73,3.38,1.1,6.5,3.06,9.28,5.85,5.9-1.39,11.89-4.06,16.47-7.34l.76-.54,.03,.93c.06,1.67,.09,3.26,.12,4.8,.09,4.25,.18,8.27,.76,12.52l.06,.42-7.32,2.34-.21-.15c-3.58-2.64-10.43-7.26-16.39-8.76-2.56,2.56-4.51,6.46-5.42,10.81,7.05,.19,12.16,2.82,17.97,6.97,6.3-5.67,14.53-9.38,21.71-9.81-.47-2.68-.7-7.58-.7-14.58v-.02c.18-3.7,.1-7.66,0-11.87-.2-9.42-.4-19.14,2.34-26.96-2.59,.78-5.01,1.11-7.42,1.11-4.59,0-9.11-1.21-14.56-2.86h0Zm-5.82,33.67l.07-.61c.62-5.19,.55-16.26,.18-20.74l-.03-.32,.28-.16c1.52-.85,3.92-2.69,5.15-3.92l.22-.23,.3,.11c2.98,1.05,6.35,1.71,9.02,1.75h.59l-.1,.59c-.79,4.41-.79,9.96-.78,15.33,0,1.25,0,2.51,0,3.74v.28l-.24,.14c-3.45,2.06-8.69,3.55-14.02,3.99l-.61,.05h0Z"/></g><g><path class="cls-4" d="M214.54,71.13c-5.23-2.69-12.74-4.48-18.83-4.48-.13,0-.25,0-.38,0,2.68-6.27,2.65-16.1-.1-29.26,6.23-1.58,12.04-6.51,15.12-9.51,5.37,1.75,11.23,3.35,17.73,3.35,1.18,0,2.39-.05,3.6-.15-1.35,8.65-1.13,20.17,.58,30.39-6.01,1.13-12.42,4.62-17.72,9.66Zm-8.75-36.06c1.06,8.41,.91,16.3,.35,25.56l-.06,.94,.93,.11c5.85,.71,10.19,1.54,13.26,2.54l1.3,.42,.19-27.49-.92-.08c-2.19-.2-9.64-1-13.62-3.01l-1.68-.85,.24,1.87Z"/><path class="cls-5" d="M210.47,28.45c5.33,1.73,11.14,3.28,17.6,3.28,.99,0,2-.04,3.01-.11-1.23,8.48-1.01,19.54,.6,29.44-3.18,.66-6.45,1.96-9.61,3.78v-.89l.19-26.35v-.92l-.91-.08-.46-.04c-2.17-.2-9.54-.99-13.44-2.96l-.84-.42-1.06-.54c1.96-1.46,3.65-2.97,4.92-4.19m-5.45,4.58l.15,1.17,.12,.93c1.06,8.37,.9,16.23,.35,25.46l-.03,.47-.06,.94,.93,.11,.47,.06c5.82,.71,10.13,1.53,13.17,2.52l.65,.21,.78,.25c-2.48,1.49-4.89,3.29-7.1,5.37-5.17-2.58-12.41-4.31-18.38-4.37,2.41-6.31,2.32-15.84-.25-28.4,3.33-.93,6.51-2.77,9.22-4.72m5.18-5.71c-3.19,3.13-9.19,8.27-15.57,9.7,2.94,13.82,2.9,23.96-.1,30.15,.38-.02,.77-.02,1.17-.02,6.11,0,13.68,1.81,18.92,4.59,5.45-5.27,12.04-8.84,18.21-9.87-1.81-10.47-2.03-22.62-.56-31.35-1.44,.14-2.83,.21-4.2,.21-6.04,0-11.51-1.33-17.86-3.41h0Zm10.87,36.64l-.65-.21c-3.1-1.01-7.47-1.84-13.36-2.56l-.47-.06,.03-.47c.56-9.29,.71-17.2-.35-25.65l-.12-.93,.84,.42c4.06,2.05,11.59,2.86,13.8,3.07l.46,.04-.19,26.35h0Z"/></g><g><path class="cls-4" d="M265.61,75.45c2.04-9.1,1.92-18.54,1.8-27.7v-.22c-.04-2.73-.07-5.56-.04-8.3v-.4l-1.91-2.06-12.33,5.52,.15,.78c.23,1.19,.11,3.99-.03,7.23-.32,7.51-.68,15.96,2.12,18.57h-13.84c2.78-2.81,2.64-13.32,2.16-26.65-.17-4.66-.33-9.05-.04-10.24l.2-.82-2.55-1.1c3.71-.61,7.99-1.54,10.88-2.24l1.08,1.8v8.97l1.55-1.01c5.16-3.38,8.61-6.2,12.57-10.29,3.34,3.17,6.42,5.35,10.17,7.18-1.55,9.43-1.71,21.73-.42,33.07-4.53,1.87-8.59,5.14-11.53,7.93Z"/><path class="cls-5" d="M267.39,27.97c3.14,2.94,6.09,5.01,9.61,6.76-1.49,9.32-1.64,21.34-.4,32.47-3.89,1.68-7.42,4.33-10.17,6.81,1.71-8.67,1.6-17.6,1.49-26.27v-.22c-.04-2.73-.07-5.56-.04-8.29v-.6l-.27-.29-1.54-1.66-.49-.52-.65,.29-11.64,5.21-.72,.32,.15,.78,.08,.39c.22,1.13,.1,4.04-.03,7.12-.29,6.93-.62,14.66,1.58,18.08h-11.78c2.04-3.37,2.17-11.66,1.64-26.18-.16-4.41-.32-8.97-.05-10.09l.1-.41,.2-.82-.77-.33-.62-.27c3.13-.56,6.45-1.29,8.9-1.88l.82,1.37v9.75l1.55-1.01,.77-.51c5.05-3.31,8.47-6.08,12.31-10m-.03-1.41c-4.07,4.24-7.59,7.14-12.83,10.58l-.77,.51v-8.18l-1.34-2.24c-3.58,.88-8.67,1.97-12.53,2.53v.22l3.38,1.46-.1,.41c-.31,1.26-.15,5.48,.02,10.38,.49,13.42,.64,24.71-2.41,26.6v.53h15.39v-.53c-3.12-1.85-2.73-11.06-2.41-18.51,.14-3.28,.26-6.11,.02-7.35l-.08-.39,11.64-5.21,1.54,1.66v.2c-.03,2.82,0,5.73,.04,8.54,.12,9.7,.25,19.72-2.2,29.27,3.11-3.15,7.74-7.13,12.96-9.19-1.35-11.58-1.19-24.11,.43-33.68-3.97-1.89-7.22-4.19-10.74-7.6h0Z"/></g><g><path class="cls-4" d="M287.62,25.19c2.2-4.11,1.37-9.21-.77-12.54,2.54-2.37,3.29-4.74,4.21-7.9,4.71,.58,7.24,3.16,7.14,7.29-.12,5.17-4.68,11.71-10.58,13.15Z"/><path class="cls-5" d="M291.42,5.31c4.14,.64,6.37,3.01,6.28,6.72-.11,4.67-3.98,10.52-9.16,12.37,1.6-3.93,.83-8.48-1.06-11.66,2.29-2.26,3.08-4.52,3.93-7.43m-.72-1.1c-1.01,3.52-1.7,5.89-4.5,8.36,2.51,3.59,3.23,9.22,.41,13.32,6.63-.88,11.96-8,12.09-13.84,.1-4.5-2.81-7.34-8.01-7.84h0Z"/></g><g><path class="cls-4" d="M316.16,71.3c-3.9-3.11-8.57-3.45-13.5-3.81l-.82-.06c.31-2.64,1.29-6.17,2.84-8.36,4.24,.53,8.46,2.36,13.33,4.47,1.24,.54,2.5,1.08,3.82,1.63l1.13,.47,.23-1.21c.98-5.08,1.31-9.68,1-14.07l-.07-1.02-1.02,.09c-5.12,.46-12.09,1.71-17.59,3.14,.5-6.21,.98-13.16-.95-20.08,5.11-.34,9.07-1.95,14.48-4.15l1.26-.51c3.6,1.72,8.78,2.88,15.41,3.45-.94,2.3-2.44,3.87-4.47,4.67-1.09,.43-2.34,.65-3.74,.65-4.78,0-9.56-2.46-11.39-3.52l-1.33-.77-.16,1.53c-.42,3.86-.38,8.43,.09,12.86l.13,1.26,1.19-.42c5.45-1.93,10.66-2.33,16.7-2.78l1.32-.1c-.35,6.88-.35,16.4,.43,22.08-7.61,.27-13.78,1.8-18.35,4.55Z"/><path class="cls-5" d="M320.29,28.39c3.52,1.64,8.45,2.76,14.68,3.34-.89,1.83-2.21,3.09-3.91,3.77-1.03,.41-2.22,.62-3.55,.62-3.23,0-7.4-1.29-11.14-3.45l-.67-.38-1.33-.77-.16,1.53-.08,.76c-.42,3.89-.39,8.5,.09,12.97l.07,.63,.13,1.26,1.19-.42,.6-.21c5.38-1.91,10.57-2.3,16.57-2.76l.76-.06c-.31,6.63-.31,15.46,.39,21.06-7.28,.32-13.24,1.81-17.74,4.42-3.96-3.01-8.6-3.35-13.51-3.71l-.29-.02c.35-2.4,1.21-5.38,2.52-7.36,4.07,.57,8.18,2.35,12.93,4.4,1.21,.53,2.47,1.07,3.79,1.62l.57,.24,1.13,.47,.23-1.21,.12-.6c.99-5.12,1.32-9.76,1-14.2l-.04-.51-.07-1.02-1.01,.09-.51,.05c-4.93,.44-11.58,1.61-16.99,2.98,.47-5.89,.84-12.42-.86-18.97,4.9-.43,8.79-2.01,14.02-4.13l1.06-.43m.03-1.09l-1.47,.59c-5.54,2.25-9.61,3.91-14.94,4.14,2.11,7.08,1.63,13.97,1.04,21.21,5.53-1.48,12.89-2.82,18.19-3.3l.51-.05,.04,.51c.31,4.35-.01,8.9-.99,13.94l-.12,.6-.57-.24c-1.33-.55-2.59-1.1-3.81-1.63-5.01-2.17-9.36-4.05-13.77-4.54-1.76,2.32-2.89,6.31-3.16,9.35,.45,.03,.89,.07,1.33,.1,4.97,.36,9.67,.71,13.5,3.92,4.64-2.89,11.01-4.46,18.96-4.68-.96-6.15-.82-16.86-.48-23.11-.64,.05-1.27,.1-1.89,.15-6.08,.46-11.32,.86-16.83,2.81l-.6,.21-.07-.63c-.47-4.4-.5-8.93-.09-12.75l.08-.76,.67,.38c3.32,1.92,7.71,3.59,11.64,3.59,1.39,0,2.72-.21,3.92-.69,2.35-.93,4.02-2.81,4.99-5.58-7.01-.55-12.42-1.74-16.1-3.55h0Z"/></g><g><path class="cls-4" d="M408.61,89.86c-9.96,0-16.08-4.68-22.01-9.2-5.49-4.2-10.68-8.16-18.48-8.16-.66,0-1.33,.03-2.01,.09,6.6-10.17,8.91-26.27,1.3-35.73,3.36-6.68,5.95-16.26,3.29-23.48-.93-2.52-2.43-4.61-4.46-6.23,.38,.01,.75,.02,1.14,.02,4.06,0,8.04-.59,11.9-1.16,3.48-.52,7.05-1.05,10.65-1.13-8.46,5.51-8.02,19.89-7.7,30.55,.1,3.4,.2,6.6,.01,9.12,.02,.62,.04,1.19,.06,1.77,.15,4.59,.31,9.77,2.45,13.81-2.24,.97-4.95,2.28-6.07,4.78l-.2,.45,.24,.44c4.11,7.52,14.92,14.5,23.22,17.82l3.45,1.38-2.29-2.92c-.69-.88-1.53-2.2-2.39-3.75,8.55,4.9,16.41,7.28,23.98,7.28,1.06,0,2.13-.05,3.19-.14-7.34,2.96-13.67,4.4-19.26,4.4Z"/><path class="cls-5" d="M388.32,5.43c-7.33,6.22-6.91,19.79-6.6,30,.1,3.38,.2,6.58,.01,9.07v.12c.02,.56,.04,1.13,.06,1.7,.14,4.47,.3,9.48,2.26,13.55-2.17,.96-4.72,2.31-5.84,4.83l-.1,.23-.2,.45,.24,.44,.12,.22c4.17,7.62,15.09,14.7,23.47,18.04l1.73,.69,3.45,1.38-2.29-2.92-1.15-1.46c-.43-.55-.92-1.27-1.44-2.12,8.01,4.34,15.45,6.46,22.64,6.46h.12c-6.07,2.19-11.4,3.26-16.19,3.26-9.79,0-15.85-4.63-21.71-9.1-5.56-4.25-10.81-8.26-18.78-8.26-.35,0-.71,0-1.07,.02,6.23-10.26,8.25-25.82,.94-35.23,3.34-6.76,5.85-16.33,3.17-23.59-.8-2.16-2-4.01-3.58-5.54,4.02-.02,7.95-.6,11.78-1.17,2.93-.43,5.93-.88,8.96-1.06m2.56-1.08c-3.94,0-7.85,.58-11.66,1.14-3.86,.57-7.81,1.16-11.84,1.16-.94,0-1.89-.03-2.84-.1,2.68,1.66,4.59,4,5.7,6.99,2.65,7.18,0,16.72-3.41,23.37,7.85,9.4,5.49,25.95-1.72,36.27,1.05-.13,2.06-.2,3.02-.2,7.63,0,12.77,3.93,18.17,8.06,6.02,4.6,12.18,9.3,22.31,9.3,5.72,0,12.71-1.5,21.67-5.37l-.1-.32c-1.83,.28-3.66,.42-5.51,.42-7.99,0-16.18-2.64-25.26-8.11,.96,1.87,2.19,4.01,3.27,5.39l1.15,1.46-1.73-.69c-8.22-3.28-18.91-10.19-22.97-17.59l-.12-.22,.1-.23c1.13-2.52,4.08-3.78,6.23-4.71l.09-.04c-2.33-4-2.5-9.34-2.65-14.07-.02-.58-.04-1.15-.06-1.71,.19-2.54,.09-5.76-.01-9.17-.35-11.34-.81-26.58,9.16-31.04-.33,0-.67-.01-1-.01h0Z"/></g><g><path class="cls-4" d="M418.45,71.06c-4.39-2.46-9.11-3.69-15.16-3.95,1.08-4.74,1.71-12.05,.17-18.32,1.29,.09,2.6,.14,3.88,.14,6.46,0,12.62-1.16,17.36-3.28l.59-.26v-11.06l-1.43,.69c-1.81,.87-6.47,2.89-10.8,2.89-1.74,0-3.24-.34-4.43-1-1.81-1-2.97-2.8-3.47-5.36,.56,.02,1.12,.03,1.68,.03,6.51,0,12.77-1.3,17.25-3.59,3.92,4.01,7.48,5.75,12.45,6.04-1.84,5.15-3.13,19.46-.34,25.82,.61,1.38,1.39,2.33,2.33,2.84-3.44,1.91-6.41,5.35-8.21,8.21-2.08-1.71-3.75-4.43-4.58-6.34l-.36-.83v-15.18l-1.35,.51c-3.64,1.37-6.62,2.19-8.85,2.44l-.87,.1-.21,10.8,.93,.09c.94,.09,1.8,.14,2.64,.19,2.05,.12,3.96,.23,6.48,.86l.48,.12-6.17,7.42Z"/><path class="cls-5" d="M423.99,28.59c3.74,3.76,7.21,5.49,11.87,5.88-1.75,5.69-2.85,19.36-.12,25.57,.5,1.14,1.12,2.02,1.86,2.61-3.03,1.89-5.65,4.87-7.38,7.48-1.81-1.65-3.26-4.06-4.01-5.78l-.32-.73v-15.8l-1.35,.51-.68,.25c-3.6,1.35-6.54,2.16-8.73,2.41l-.44,.05-.87,.1-.02,.88-.2,9.9-.02,.93,.93,.09,.46,.04c.95,.09,1.82,.14,2.69,.19,1.92,.11,3.73,.22,6.06,.77l-5.39,6.49c-4.22-2.29-8.74-3.48-14.42-3.78,.98-4.63,1.5-11.36,.19-17.31,1.08,.06,2.17,.09,3.24,.09,6.53,0,12.77-1.18,17.56-3.32l.3-.13,.59-.26v-12.18l-1.43,.69-.72,.34c-1.77,.85-6.36,2.84-10.58,2.84-1.66,0-3.07-.32-4.19-.94-1.52-.85-2.56-2.32-3.09-4.41,.35,0,.71,.01,1.06,.01,6.43,0,12.63-1.26,17.15-3.48m.2-1.22c-4.47,2.37-10.77,3.7-17.35,3.7-.76,0-1.52-.02-2.28-.05,.45,3.04,1.74,5.16,3.83,6.32,1.39,.77,3.01,1.06,4.68,1.06,4.45,0,9.27-2.1,11.01-2.93l.72-.34v9.94l-.3,.13c-4.73,2.11-10.79,3.24-17.16,3.24-1.5,0-3.02-.06-4.54-.19,1.71,6.2,1.2,13.98-.13,19.35,6.4,.2,11.35,1.48,15.9,4.11l6.39-7.69,.32,.74c.94,2.15,2.83,5.16,5.17,6.88,1.83-3.06,5.16-7.01,9.01-8.86v-.25c-1.16-.3-2.1-1.26-2.81-2.88-2.84-6.45-1.36-21.68,.6-26.09-5.33-.17-8.97-1.9-13.07-6.19h0Zm.69,35.82l-.62-.15c-2.56-.63-4.49-.75-6.54-.87-.84-.05-1.71-.1-2.65-.19l-.46-.04,.2-9.9,.44-.05c2.27-.25,5.29-1.08,8.97-2.47l.68-.25v13.92h0Z"/></g><g><path class="cls-4" d="M451.12,71.25c-3.18-4.21-2.74-18.15-2.42-28.38,.15-4.82,.28-8.98,0-11.25l-.07-.57-2.3-1c3.71-.61,7.99-1.54,10.88-2.25l1.13,1.89c.26,1.5,.11,6.05-.06,10.87-.52,14.97-.65,25.83,2.32,28.44-2.07,.33-3.96,.83-5.79,1.32-1.21,.32-2.43,.65-3.7,.93Z"/><path class="cls-5" d="M456.98,28.38l.9,1.49c.23,1.52,.08,5.97-.08,10.68v.06c-.56,16.25-.42,24.84,1.84,28.05-1.75,.32-3.38,.76-4.97,1.19-1.08,.29-2.18,.58-3.33,.84-2.87-4.39-2.43-18.41-2.13-27.81,.15-4.84,.28-9.01,0-11.32l-.03-.29-.07-.57-.53-.23-.5-.21c3.13-.56,6.45-1.29,8.9-1.88m.48-1.15c-3.58,.88-8.67,1.97-12.53,2.53v.22l3.26,1.41,.03,.29c.27,2.23,.14,6.38-.01,11.17-.33,10.53-.78,24.9,2.72,28.96,1.4-.3,2.73-.65,4.02-1,1.97-.53,4.01-1.07,6.26-1.39v-.59c-3.06-1.93-2.92-13.43-2.41-28.18,.18-5.18,.33-9.66,.04-11.13l-1.37-2.28h0Z"/></g><g><path class="cls-4" d="M453.17,17.08c-1.31-1.21-2.88-2.42-4.4-3.59-.79-.61-1.55-1.19-2.24-1.75,1.62-2.58,4.08-5.83,7.03-7.61,1.5,1.6,3.75,3.39,6.84,5.46-2.99,2.21-5.32,4.18-7.23,7.48Z"/><path class="cls-5" d="M453.48,4.77c1.42,1.45,3.41,3.04,6.05,4.84-2.61,1.97-4.72,3.82-6.48,6.68-1.22-1.09-2.62-2.16-3.99-3.21-.63-.48-1.27-.98-1.87-1.45,1.52-2.36,3.71-5.18,6.29-6.86m.18-1.27c-3.31,1.84-6.02,5.46-7.79,8.35,.78,.64,1.66,1.32,2.58,2.03,1.71,1.31,3.47,2.66,4.84,4.01,2.08-3.86,4.71-5.92,7.98-8.31-3.55-2.34-6.05-4.33-7.61-6.08h0Z"/></g><g><path class="cls-4" d="M470.41,68.86c2.72-2.7,2.59-12.87,2.1-26.71-.17-4.69-.32-9.06-.04-10.16l.21-.83-2.56-1.11c3.71-.61,7.99-1.54,10.88-2.24l1.08,1.8v15.17l1.85-2.98c2.66-4.29,4.89-8.81,6.8-13.78,2.39,1.25,5.68,2.4,10.03,3.5-.61,4.17-1.86,7.5-3.7,9.92-.19-.1-.4-.22-.61-.33-3.53-1.93-5.02-2.58-5.92-2.58-.32,0-.59,.08-.82,.24l-.07,.05-7.56,10.6v12.62c.06,3.92,1.13,5.87,3.96,6.83h-15.63Z"/><path class="cls-5" d="M480.76,28.38l.82,1.37v16.78l1.85-2.98,.92-1.49c2.59-4.17,4.77-8.55,6.64-13.35,2.29,1.13,5.32,2.17,9.2,3.17-.59,3.68-1.69,6.67-3.28,8.9l-.26-.14c-3.63-1.99-5.12-2.63-6.14-2.63-.43,0-.8,.11-1.11,.34l-.13,.1-.1,.13-7.42,10.4-.19,.26v12.79c.05,3.12,.74,5.09,2.38,6.32h-12.53c1.99-3.29,2.1-11.43,1.57-26.23v-.05c-.16-4.39-.32-8.94-.05-9.97l.11-.41,.21-.83-.78-.34-.62-.27c3.13-.56,6.45-1.29,8.89-1.88m.48-1.15c-3.58,.88-8.67,1.97-12.53,2.53v.22l3.39,1.46-.11,.41c-.3,1.18-.15,5.41,.02,10.31,.5,14.07,.64,25.02-2.41,26.69v.5h18.06v-.6c-3.77-.74-5.01-2.43-5.08-6.73v-12.46l7.42-10.4c.13-.1,.3-.15,.52-.15,.82,0,2.38,.71,5.66,2.5,.38,.21,.76,.41,1.01,.55,2.11-2.6,3.5-6.28,4.12-10.94-4.84-1.2-8.41-2.46-10.86-3.83-1.94,5.15-4.22,9.81-6.96,14.23l-.92,1.49v-13.55l-1.34-2.24h0Z"/></g></g></g></svg>